<svg width="80" height="80" viewBox="0 0 80 80" fill="none" xmlns="http://www.w3.org/2000/svg">
<path d="M57.4557 3.95593L50.928 9.91796L58.7332 15.9017L62.796 8.05062L57.4557 3.95593ZM47.6572 10.4572L41.6319 18.1512L52.7157 26.8481L58.7476 19.1731L47.6572 10.4572ZM39.7674 20.5009L30.6994 32.04L49.2351 45.9283C49.2351 45.9283 49.784 46.3008 50.0913 46.8508C50.4069 47.4152 50.3741 47.9344 50.3741 47.9344V68.0194H46.428V64.1819H13.946V68.0194H9.61084V77.2941H67.6504V52.8412C66.2048 53.5679 64.6094 53.947 62.9915 53.9481C57.2562 53.9481 52.6066 49.2984 52.6068 43.563C52.6094 41.7417 53.0909 39.9531 54.0031 38.3767C54.9152 36.8003 56.2259 35.4916 57.8037 34.5817L39.7671 20.5009H39.7674ZM28.9062 34.4023L18.2483 48.0122L35.878 48.2728L40.1741 42.8066L28.9062 34.4023ZM62.9915 36.1656C61.0297 36.1658 59.1483 36.9452 57.7611 38.3325C56.3739 39.7197 55.5946 41.6012 55.5946 43.563C55.5946 45.5248 56.3739 47.4062 57.7611 48.7935C59.1483 50.1807 61.0297 50.9601 62.9915 50.9603C64.9534 50.9603 66.8349 50.181 68.2222 48.7937C69.6095 47.4064 70.3889 45.5249 70.389 43.563C70.389 41.601 69.6096 39.7194 68.2223 38.3321C66.835 36.9448 64.9534 36.1655 62.9915 36.1655V36.1656ZM62.9915 38.9266C63.6004 38.9265 64.2033 39.0464 64.7659 39.2794C65.3284 39.5124 65.8396 39.8539 66.2702 40.2844C66.7007 40.7149 67.0423 41.2261 67.2753 41.7886C67.5084 42.3511 67.6283 42.9541 67.6283 43.563C67.6283 44.1719 67.5084 44.7748 67.2754 45.3374C67.0424 45.8999 66.7008 46.4111 66.2702 46.8416C65.8396 47.2722 65.3285 47.6137 64.7659 47.8467C64.2033 48.0797 63.6004 48.1996 62.9915 48.1995C61.7618 48.1995 60.5825 47.711 59.713 46.8415C58.8435 45.9719 58.3551 44.7926 58.3551 43.563C58.3551 42.3333 58.8435 41.154 59.713 40.2845C60.5825 39.415 61.7618 38.9264 62.9915 38.9264V38.9266Z" fill="black"/>
</svg>
