<svg width="72" height="79" viewBox="0 0 72 79" fill="none" xmlns="http://www.w3.org/2000/svg">
<g clip-path="url(#clip0_72_24)">
<path d="M26.2605 0.195923C24.881 0.195923 23.8985 1.04129 23.2802 1.88284C22.6623 2.72439 22.2764 3.62436 22.2764 4.67373C22.2764 5.72326 22.6358 6.64448 23.2196 7.56736C23.8037 8.49025 24.7352 9.5343 26.2607 9.5343H26.2271L27.3303 9.55787V29.8085C18.7228 40.7418 2.00346 62.0561 2.00346 62.0561L1.93656 62.1413L1.88248 62.2345C1.03381 63.6965 0.215088 65.7289 0.215088 68.1495C0.215088 74.0469 5.12075 78.9098 11.0027 78.91H60.858C66.7243 78.91 71.6458 74.1103 71.6458 68.1495C71.6458 65.4445 70.4633 63.3981 69.7826 62.2317L69.727 62.1361L44.5311 30.3851V9.55687C44.9632 9.54592 45.0406 9.53463 45.5854 9.5343H45.6001C47.1257 9.5343 48.0574 8.48991 48.6413 7.56736C48.8305 7.26792 48.9858 6.96699 49.1232 6.66357L49.3562 6.43169H49.2207C49.4457 5.87198 49.5845 5.29634 49.5845 4.67356C49.5845 3.62453 49.1989 2.72422 48.5807 1.88284C47.9627 1.04129 46.9799 0.195923 45.6001 0.195923H26.2603H26.2605ZM26.2605 3.29787H45.6006C45.5849 3.29787 45.8169 3.36808 46.0725 3.71616C46.3281 4.06406 46.4752 4.62775 46.4752 4.67389C46.4752 4.71971 46.3016 5.45337 46.0118 5.91149C45.7229 6.36795 45.4423 6.43135 45.5999 6.43185C44.4624 6.43185 43.5834 6.46455 43.22 6.47916V6.4448H27.0872V6.44978L26.2776 6.43235H26.2607C26.4224 6.43235 26.1397 6.36977 25.8496 5.91165C25.5601 5.45353 25.3864 4.71987 25.3864 4.67389C25.3864 4.62808 25.5333 4.06439 25.7891 3.71616C26.0447 3.36841 26.2766 3.2982 26.2608 3.2982L26.2605 3.29787ZM30.4398 9.54658H41.4219V22.0072H41.4146V30.7209L41.4221 30.7306V31.4645L67.1429 63.8775C67.7932 64.9959 68.5362 66.3839 68.5362 68.1495C68.5362 72.4087 65.0267 75.808 60.8585 75.808H11.0032C6.85087 75.8077 3.32522 72.3194 3.32522 68.1495C3.32522 67.559 3.39678 66.9937 3.51592 66.459L3.52508 66.473C3.6443 65.9313 3.81618 65.4024 4.03827 64.894L4.00932 64.9341C4.16385 64.5664 4.33999 64.2081 4.53683 63.861C4.64798 63.7193 21.6404 42.0568 30.1081 31.302L30.4401 30.8804V30.6887C30.444 30.6837 30.4518 30.6741 30.4554 30.6691V22.0072H30.4401V9.54658H30.4398ZM33.5649 22.0072V31.7369L33.2338 32.158C27.5598 39.3806 7.34443 65.334 7.19766 65.5224C6.80161 66.2199 6.45216 67.1308 6.45216 68.1478C6.45216 70.6721 8.59381 72.7921 11.0946 72.7921H60.8492C63.3659 72.7921 65.4916 70.7362 65.4916 68.1478C65.4916 67.1057 65.055 66.2765 64.6258 65.5358L38.3043 31.7857V22.007H33.5651L33.5649 22.0072ZM32.8913 41.8807C36.3883 41.8807 39.2563 44.7416 39.2563 48.2296C39.2563 51.7182 36.3883 54.5791 32.8913 54.5791C29.3943 54.5791 26.5259 51.7182 26.5259 48.2301C26.5259 44.7418 29.3943 41.8807 32.8913 41.8807ZM32.8913 44.9829C31.0753 44.9829 29.6361 46.4184 29.6361 48.2296C29.6361 50.0414 31.0755 51.477 32.8913 51.477C34.7075 51.477 36.1467 50.0417 36.1467 48.2298C36.1467 46.4182 34.7073 44.9826 32.8913 44.9826V44.9829ZM22.8582 54.0818C26.3552 54.0818 29.2235 56.9429 29.2235 60.4311C29.2235 63.9195 26.3552 66.7804 22.8582 66.7804C19.3611 66.7804 16.4928 63.9191 16.4928 60.4309C16.4928 56.9427 19.3611 54.0818 22.8582 54.0818ZM38.9368 55.8595C43.0411 55.8595 46.4015 59.2119 46.4015 63.3056C46.4015 67.3997 43.0409 70.7514 38.9368 70.7514C34.8328 70.7514 31.4718 67.3995 31.4718 63.3056C31.4718 59.2119 34.8328 55.8595 38.9368 55.8595ZM22.8582 57.1841C21.0422 57.1841 19.6029 58.6199 19.6029 60.4311C19.6029 62.2427 21.0423 63.6783 22.8582 63.6783C24.6743 63.6783 26.1136 62.2428 26.1136 60.4311C26.1136 58.6197 24.6742 57.1841 22.8582 57.1841ZM38.9368 58.9618C36.5136 58.9618 34.582 60.8886 34.582 63.3056C34.582 65.7229 36.5136 67.6495 38.9368 67.6495C41.3604 67.6495 43.2917 65.7232 43.2917 63.3056C43.2917 60.8886 41.3602 58.9618 38.9368 58.9618Z" fill="black"/>
</g>
<defs>
<clipPath id="clip0_72_24">
<rect width="72" height="79" fill="white"/>
</clipPath>
</defs>
</svg>
