<svg width="99" height="66" viewBox="0 0 99 66" fill="none" xmlns="http://www.w3.org/2000/svg">
<path d="M82.5452 0.125352C75.3102 0.0958626 66.0964 2.09572 56.1424 5.93696C54.2391 5.57481 52.3048 5.39409 50.3663 5.39733C45.2636 5.40635 40.0928 6.69205 35.3565 9.39083C28.8264 13.1121 24.2393 18.877 21.9449 25.3957C5.58432 38.2667 -3.20099 52.2571 1.42021 60.1571C6.17855 68.2917 23.7108 67.5106 43.928 59.3109C44.2744 59.1705 44.6243 59.0295 44.9724 58.8846C45.0991 58.8321 45.2271 58.7815 45.3545 58.7281C45.7233 58.5747 46.0922 58.4164 46.4625 58.2579L46.781 58.1201C47.075 57.9931 47.3709 57.8613 47.666 57.7309C51.683 55.9632 55.7745 53.9162 59.8612 51.5875C63.0069 49.7956 66.0768 47.8778 69.0633 45.8389C69.1435 45.7841 69.2253 45.7305 69.3053 45.6758C69.4423 45.5825 69.5764 45.4872 69.7129 45.3937C90.1673 31.3498 101.941 14.7348 96.7397 5.84288C94.4954 2.00665 89.4131 0.153638 82.5445 0.125552L82.5452 0.125352ZM71.0569 10.1557C76.0426 10.0675 79.7401 11.3285 81.3351 14.0552C83.0414 16.972 82.0675 21.1055 79.0486 25.6778C78.4089 23.8094 77.5835 22.0077 76.5845 20.2989C74.1962 16.2165 70.9723 12.9073 67.2549 10.4504C68.5882 10.2759 69.8609 10.1768 71.0571 10.1555L71.0569 10.1557ZM20.3274 37.0934C20.6121 41.5308 21.9088 45.9717 24.3141 50.0827C25.3298 51.8215 26.5202 53.4556 27.8674 54.9603C22.2302 55.3014 18.0261 54.074 16.2966 51.1171C14.2954 47.6967 15.9791 42.6047 20.3274 37.0934ZM79.6732 42.6418C74.4248 46.9191 68.3979 51.0497 61.7656 54.8287C55.2506 58.5408 48.7304 61.5818 42.4571 63.9122C49.9651 65.9468 58.2662 65.1305 65.5417 60.9848C72.8438 56.8242 77.7177 50.1088 79.673 42.6416L79.6732 42.6418Z" fill="black"/>
</svg>
