<svg width="74" height="80" viewBox="0 0 74 80" fill="none" xmlns="http://www.w3.org/2000/svg">
<g clip-path="url(#clip0_60_12)">
<path d="M37 0.284058C24.8101 0.284058 14.8953 10.2233 14.8953 22.4432C14.8953 34.663 24.8101 44.6022 37 44.6022C49.19 44.6022 59.1048 34.663 59.1048 22.4432C59.1048 10.2233 49.19 0.284058 37 0.284058ZM35.5836 5.5898L33.5816 11.5976L42.4482 10.6664L41.5664 7.69082L44.053 8.38099V11.6822L47.9371 11.9362L47.1774 8.97366L49.2191 7.78832C53.3933 11.2874 56.0442 16.5483 56.0442 22.4432C56.0442 25.2843 55.4278 27.978 54.3225 30.3986L49.8795 31.1524V36.5179C49.0319 37.2976 48.1157 37.9987 47.1421 38.6128L45.2349 35.6387L41.5193 36.6546L42.5633 40.7091C40.7596 41.2577 38.8849 41.5357 37 41.5341C31.7267 41.5341 26.9616 39.3974 23.5166 35.9387L26.9106 35.4696L29.1908 30.9829L21.9282 27.343L27.0794 22.9409L22.6041 19.2164L18.0313 20.7442C18.5604 14.702 21.8831 9.47667 26.7021 6.37184L27.6706 14.1371L35.5836 5.5898ZM42.1947 16.5359L36.0444 20.4863L41.4186 25.2749L45.3 24.1376L44.9416 28.8066L52.0475 27.0108L49.3602 20.9055L45.0611 20.9653L48.8827 17.6731L42.1948 16.5359H42.1947ZM35.8059 23.4193L32.5216 24.8558L34.8503 26.5917L35.8059 23.4193ZM28.0927 23.957L25.8128 26.6655L32.1292 31.1157L28.0927 23.957ZM38.2541 25.4544L35.9254 29.8243L41.5383 33.6551L39.5676 30.8416L42.0158 27.9086L38.2541 25.4544ZM3.70175 30.124C2.20237 30.1007 0.667785 32.0149 0.658943 36.9221C0.64568 44.4482 -0.0817378 46.5725 3.39262 55.0842C5.94028 61.3259 7.08276 66.1233 15.2353 70C16.2012 73.4128 15.8157 74.2153 15.1605 77.1318C14.5491 79.8546 20.8437 80.3551 25.4535 78.0613C30.4001 75.3565 29.985 67.9095 29.1013 62.8595C28.0736 56.9866 24.8402 55.766 22.0375 53.2574C19.1273 49.0855 18.4501 41.5279 13.7302 38.4792C12.7445 37.8425 7.71598 37.1962 14.6249 54.492C5.51587 52.2304 7.17509 41.7466 6.51637 33.9846C6.32015 31.6731 5.02464 30.1443 3.70175 30.1238V30.124ZM70.2983 30.124C68.9755 30.1445 67.68 31.6731 67.4837 33.9848C66.825 41.7466 68.4842 52.2304 59.3752 54.492C66.2843 37.196 61.2556 37.8425 60.2699 38.4792C55.55 41.5279 54.873 49.0855 51.9626 53.2576C49.1601 55.766 45.9263 56.9866 44.8988 62.8595C44.0151 67.9095 43.6 75.3565 48.5466 78.0613C53.1564 80.3549 59.451 79.8546 58.8394 77.1318C58.1844 74.2153 57.7989 73.4128 58.7648 70C66.9173 66.1233 68.0598 61.3259 70.6075 55.0842C74.0818 46.5725 73.3544 44.4482 73.3412 36.9222C73.3323 32.0149 71.7977 30.1007 70.2983 30.124Z" fill="black"/>
</g>
<defs>
<clipPath id="clip0_60_12">
<rect width="74" height="80" fill="white"/>
</clipPath>
</defs>
</svg>
