<svg width="87" height="80" viewBox="0 0 87 80" fill="none" xmlns="http://www.w3.org/2000/svg">
<g clip-path="url(#clip0_49_88)">
<path d="M39.5813 0.0917358L36.1439 0.533203L37.0826 7.76385C35.3919 8.12586 33.7027 8.61834 32.0221 9.24311L30.2598 1.87504L26.8859 2.66586L28.7873 10.6191C27.1787 11.3938 25.6237 12.2731 24.1325 13.251L20.9271 5.38385L17.7153 6.66238L21.2454 15.3266C20.3293 16.0487 19.4473 16.8121 18.602 17.6143L12.3302 10.2064L9.66922 12.4082L16.2026 20.1262C15.3447 21.1086 14.5415 22.1364 13.7966 23.2051L5.65219 18.2569L3.83762 21.1813L11.9763 26.1182C11.2955 27.3375 10.6878 28.5953 10.1562 29.8851L1.33929 27.5347L0.440538 30.8484L8.99677 33.1251C8.33519 35.3016 7.87913 37.5341 7.63445 39.7939L0.278224 39.3811L0.0871582 42.8101L7.42558 43.2171C7.3925 45.3783 7.54578 47.5384 7.88377 49.6739L1.55354 50.8257L2.17961 54.1972L8.57383 53.0332C9.109 55.1477 9.82411 57.2134 10.7182 59.1974L5.83769 61.3937L7.27532 64.513L12.2839 62.2593C13.3916 64.1988 14.6822 66.0304 16.1386 67.7295L12.3302 70.8145L14.5271 73.4692L18.5154 70.2352C20.1839 71.8285 22.0115 73.2502 23.9702 74.4785L21.9874 77.4312L24.8745 79.3292L26.9961 76.1695C29.0589 77.1893 31.2652 78.0227 33.6048 78.6411L34.2657 75.3897C32.3523 74.8815 30.5455 74.2172 28.851 73.4059L30.2366 71.3416L27.3497 69.4438L25.8137 71.7314C24.122 70.6659 22.5664 69.4459 21.1471 68.102L23.7267 66.009L21.5296 63.3598L18.7762 65.5904C17.5228 64.107 16.4054 62.5161 15.4372 60.8367L19.611 58.956L18.1733 55.8367L13.8716 57.7748C13.0921 56.0422 12.4582 54.2489 11.9761 52.4134L17.9702 51.3185L17.3441 47.947L11.2745 49.0534C10.9793 47.1853 10.8397 45.2964 10.8572 43.4057L18.2831 43.8185L18.4803 40.3952L11.0659 39.9824C11.2013 38.7824 11.4007 37.5842 11.6687 36.3989C12.4527 36.5038 13.3679 36.6147 14.4631 36.7371C17.1206 37.0336 20.554 37.3693 23.9524 37.6886C29.5137 38.2112 33.1603 38.5204 34.9665 38.6749L28.8333 51.9492L27.7611 54.2714L28.0103 54.2831L39.2451 60.7339L40.99 57.7695L35.4361 54.5815L45.0417 54.9653L45.1808 51.5365L36.0276 51.1695L42.2592 48.7438L40.9896 45.5503L34.4215 48.1077L39.1407 37.8954L40.1609 35.6826L37.7086 35.476C37.7086 35.476 31.0528 34.9141 24.2774 34.2778C20.8896 33.9593 17.4703 33.6237 14.8516 33.3314C13.9949 33.236 13.2711 33.1453 12.62 33.0616C14.4435 27.7374 17.7164 22.7442 22.6022 18.658L26.486 28.1993L29.7035 26.9149L25.4602 16.502C25.5151 16.4649 25.5674 16.4249 25.6225 16.3875C26.901 15.5253 28.231 14.7402 29.6052 14.0367L33.1063 28.6983L36.4799 27.913L32.8218 12.5919C34.3859 11.9816 35.9512 11.5002 37.5176 11.1468L39.7028 27.9816L43.1405 27.5459L40.9376 10.5679C42.6005 10.3822 44.2574 10.3391 45.8998 10.4185L46.4563 28.0681L49.9229 27.9589L49.8591 25.8947L56.207 33.102L49.2915 36.233L50.7347 39.3523L56.7288 36.64L53.8187 42.5745L56.9375 44.0772L61.2791 35.2293L61.7837 34.2086L61.0298 33.3543L53.3547 24.6446L62.7281 15.866C67.1393 18.6194 71.155 22.3211 74.5135 26.7547C70.096 27.8813 66.3474 31.1864 65.1108 36.6112L73.8294 55.522L76.9597 55.0805L71.9627 42.4888L75.1917 41.233L80.49 54.5816L86.9478 53.6642L85.3881 28.2282C83.2067 27.0264 80.818 26.3949 78.4667 26.3246C77.6232 25.1135 76.7277 23.9387 75.7825 22.8035L79.2262 19.3749L76.7683 16.9609L73.4812 20.2292C72.5458 19.2543 71.5691 18.3189 70.554 17.4255L73.9162 12.4138L71.0233 10.5216L67.8698 15.2292C66.7548 14.386 65.5999 13.5958 64.4091 12.8611L66.368 7.01816L63.0753 5.94018L61.3365 11.1292C60.0164 10.459 58.6598 9.86173 57.2729 9.34018L57.8583 3.15926L54.4034 2.83816L53.8932 8.251C52.3755 7.83867 50.8323 7.52449 49.2733 7.31045L49.0993 1.77137L45.6332 1.87522L45.7955 7.00109C45.4869 6.98935 45.1778 6.98183 44.868 6.97816C44.6473 6.97577 44.4284 6.97687 44.2071 6.97816C42.9767 6.98733 41.7418 7.06164 40.503 7.20201L39.5811 0.0919192L39.5813 0.0917358ZM49.3839 10.7743C50.7961 11.0002 52.1922 11.3162 53.5632 11.7202L52.74 20.4185L52.8155 20.4244L49.7777 23.2684L49.3835 10.7743H49.3839ZM56.9369 12.8954C57.8337 13.2603 58.7155 13.6601 59.5803 14.0939L56.5544 16.9266L56.9371 12.8954H56.9369ZM77.6322 29.633C77.778 29.6288 77.9238 29.6341 78.0727 29.6446C80.4568 29.8097 82.2168 31.8176 82.0495 34.1743C81.8822 36.5303 79.8539 38.2734 77.4698 38.1079C75.0858 37.9424 73.3258 35.9339 73.4931 33.578C73.6498 31.3693 75.4445 29.6969 77.6322 29.633ZM56.6242 74.4152C55.6655 74.7035 54.699 74.9653 53.7257 75.2005L54.4677 78.555C55.5121 78.3062 56.568 78.0229 57.6387 77.7007L56.624 74.4148L56.6242 74.4152ZM50.3346 75.9002C49.0458 76.1194 47.7479 76.282 46.4446 76.3875L46.5144 79.7879C48.0412 79.6824 49.5619 79.5025 51.0708 79.2488L50.3344 75.9002H50.3346ZM37.6567 76.1009L36.99 79.3633C38.9311 79.6862 40.9516 79.8679 43.0477 79.891L42.9782 76.5251C41.1306 76.5141 39.3581 76.3655 37.6567 76.1009Z" fill="black"/>
</g>
<defs>
<clipPath id="clip0_49_88">
<rect width="87" height="80" fill="white"/>
</clipPath>
</defs>
</svg>
