<svg width="96" height="80" viewBox="0 0 96 80" fill="none" xmlns="http://www.w3.org/2000/svg">
<g clip-path="url(#clip0_62_39)">
<path d="M48.4496 0.0562744C41.7356 0.0562744 36.1431 4.65728 34.6774 10.8667H62.2217C60.7554 4.65768 55.1635 0.056677 48.4496 0.056677V0.0562744ZM25.3285 14.6231V53.6559H72.9559V14.6231H25.3285ZM49.0375 19.4724C55.5337 19.4724 60.841 24.7401 60.841 31.1869C60.841 37.6342 55.5335 42.9019 49.0375 42.9019C42.5415 42.9019 37.234 37.6342 37.234 31.1873C37.234 24.7399 42.5415 19.4724 49.0375 19.4724ZM21.5438 27.5568C17.7897 28.3965 14.3433 30.252 11.5872 32.9175C8.83103 35.583 6.87283 38.9542 5.92985 42.6571C5.23351 42.8271 4.56469 43.0935 3.94302 43.4482C0.265043 45.5491 -1.01293 50.2637 1.11365 53.9065L4.38575 52.0287C3.28641 50.1453 3.92074 47.792 5.82879 46.7021L5.86059 46.6894C7.76357 45.6237 10.134 46.2603 11.2277 48.1347C12.3274 50.0189 11.6935 52.3644 9.78484 53.4547L11.6708 56.7085C15.3488 54.6074 16.626 49.8935 14.5002 46.2502C14.2175 45.7669 13.8819 45.3159 13.4997 44.9055C14.515 40.793 17.5918 37.5315 21.5442 36.0613V27.5568H21.5438ZM76.7398 28.21V37.1797C79.5604 38.9003 81.6728 41.633 82.4805 44.9055C82.0986 45.316 81.7632 45.7668 81.4804 46.2498C79.3545 49.8933 80.6318 54.6072 84.3098 56.7081L86.1958 53.4545C84.2869 52.3642 83.653 50.0187 84.7527 48.1343C85.8519 46.2498 88.2432 45.6117 90.1512 46.7019C92.0591 47.7918 92.6936 50.1451 91.5943 52.0285L94.8664 53.9067C96.993 50.2635 95.715 45.5489 92.037 43.448C91.4153 43.0932 90.7465 42.8268 90.0502 42.6567C89.2064 39.3448 87.5492 36.292 85.2265 33.7709C82.9039 31.2498 79.9881 29.339 76.7398 28.2092V28.21ZM31.316 57.4121V64.0703C32.4512 63.7487 33.6943 63.5678 35.0503 63.5678C36.7013 63.5678 38.1844 63.8135 39.506 64.2525V57.4123H31.316V57.4121ZM60.0123 57.4121V64.1397C61.2402 63.7727 62.6006 63.5678 64.1008 63.5678C65.6044 63.5678 66.9695 63.7859 68.2021 64.1769V57.4121H60.0121H60.0123ZM35.0503 67.3242C30.6827 67.3242 28.6426 69.1982 27.2022 72.0227C26.0526 74.276 25.5303 77.1614 25.2907 79.8052H44.8224C44.6093 77.1351 44.1571 74.2474 43.0503 72.0042C41.6664 69.1996 39.6611 67.3242 35.0503 67.3242ZM64.1008 67.3242C59.49 67.3242 57.4845 69.1996 56.1008 72.0036C54.9938 74.2472 54.5417 77.1349 54.3286 79.8052H73.8604C73.6208 77.1616 73.0983 74.2764 71.9489 72.0229C70.5083 69.1984 68.4682 67.3244 64.1008 67.3244V67.3242Z" fill="black"/>
</g>
<defs>
<clipPath id="clip0_62_39">
<rect width="96" height="80" fill="white"/>
</clipPath>
</defs>
</svg>
