<svg xmlns="http://www.w3.org/2000/svg" width="123" height="76" fill="none">
  <path fill="#026729" d="M12 74h42v2H12z"/>
  <path fill="#000" d="M23.3 11.68c.347.173.547.447.6.82.067.373-.027.713-.28 1.02a.916.916 0 0 1-.68.4 1.533 1.533 0 0 1-.82-.16A5.089 5.089 0 0 0 20 13.3c-.72 0-1.367.113-1.94.34-.56.227-1.04.553-1.44.98a4.21 4.21 0 0 0-.92 1.48c-.2.573-.3 1.207-.3 1.9 0 .813.113 1.52.34 2.12.24.6.567 1.1.98 1.5.413.4.9.7 1.46.9.56.187 1.167.28 1.82.28.36 0 .72-.033 1.08-.1.36-.067.707-.187 1.04-.36a1.4 1.4 0 0 1 .82-.14c.28.04.513.18.7.42.267.333.36.68.28 1.04-.067.347-.267.6-.6.76-.347.173-.707.32-1.08.44a7.62 7.62 0 0 1-1.1.24c-.373.067-.753.1-1.14.1-.96 0-1.873-.153-2.74-.46a7.05 7.05 0 0 1-2.3-1.36c-.667-.6-1.193-1.347-1.58-2.24-.387-.907-.58-1.953-.58-3.14 0-1.027.173-1.973.52-2.84.36-.867.86-1.613 1.5-2.24a6.82 6.82 0 0 1 2.3-1.48c.88-.36 1.84-.54 2.88-.54.587 0 1.16.067 1.72.2s1.087.327 1.58.58Zm12.92 7.98c0 1.093-.248 2.06-.74 2.9a5.167 5.167 0 0 1-1.96 1.94c-.814.467-1.728.7-2.74.7-1.014 0-1.934-.233-2.76-.7a5.36 5.36 0 0 1-1.96-1.94c-.48-.84-.72-1.807-.72-2.9s.24-2.053.72-2.88a5.315 5.315 0 0 1 1.96-1.96c.826-.48 1.746-.72 2.76-.72 1.012 0 1.926.24 2.74.72a5.126 5.126 0 0 1 1.96 1.96c.492.827.74 1.787.74 2.88Zm-2.4 0c0-.68-.14-1.267-.42-1.76a2.94 2.94 0 0 0-1.1-1.18c-.454-.28-.96-.42-1.52-.42s-1.074.14-1.54.42c-.454.28-.82.673-1.1 1.18-.268.493-.4 1.08-.4 1.76 0 .667.132 1.253.4 1.76.28.493.646.88 1.1 1.16.466.28.98.42 1.54.42s1.066-.14 1.52-.42a2.99 2.99 0 0 0 1.1-1.16c.28-.507.42-1.093.42-1.76Zm10.12-5.56c1.066 0 1.853.26 2.36.78.506.507.84 1.167 1 1.98l-.34-.18.16-.32c.16-.307.406-.633.74-.98.333-.36.733-.66 1.2-.9a3.375 3.375 0 0 1 1.6-.38c.96 0 1.686.207 2.18.62.506.413.853.967 1.04 1.66.186.68.28 1.44.28 2.28v5.12c0 .347-.114.64-.34.88-.227.227-.514.34-.86.34-.347 0-.634-.113-.86-.34a1.234 1.234 0 0 1-.34-.88v-5.12c0-.44-.054-.833-.16-1.18a1.63 1.63 0 0 0-.58-.86c-.28-.213-.68-.32-1.2-.32-.507 0-.94.107-1.3.32-.36.213-.634.5-.82.86-.174.347-.26.74-.26 1.18v5.12c0 .347-.114.64-.34.88-.227.227-.514.34-.86.34-.347 0-.634-.113-.86-.34a1.234 1.234 0 0 1-.34-.88v-5.12c0-.44-.054-.833-.16-1.18a1.63 1.63 0 0 0-.58-.86c-.28-.213-.68-.32-1.2-.32-.507 0-.94.107-1.3.32-.36.213-.634.5-.82.86-.174.347-.26.74-.26 1.18v5.12c0 .347-.114.64-.34.88-.227.227-.514.34-.86.34-.347 0-.634-.113-.86-.34a1.234 1.234 0 0 1-.34-.88v-8.26c0-.347.113-.633.34-.86.226-.24.513-.36.86-.36.346 0 .633.12.86.36.226.227.34.513.34.86v.86l-.3-.06c.12-.227.286-.467.5-.72a4.15 4.15 0 0 1 .78-.74 3.926 3.926 0 0 1 1.02-.54 3.3 3.3 0 0 1 1.22-.22Zm18.437 0c1.067 0 1.853.26 2.36.78.507.507.84 1.167 1 1.98l-.34-.18.16-.32c.16-.307.407-.633.74-.98.333-.36.733-.66 1.2-.9a3.375 3.375 0 0 1 1.6-.38c.96 0 1.687.207 2.18.62.507.413.853.967 1.04 1.66.187.68.28 1.44.28 2.28v5.12c0 .347-.113.64-.34.88-.227.227-.513.34-.86.34s-.633-.113-.86-.34a1.234 1.234 0 0 1-.34-.88v-5.12a4 4 0 0 0-.16-1.18 1.63 1.63 0 0 0-.58-.86c-.28-.213-.68-.32-1.2-.32-.507 0-.94.107-1.3.32-.36.213-.633.5-.82.86-.173.347-.26.74-.26 1.18v5.12c0 .347-.113.64-.34.88-.227.227-.513.34-.86.34s-.633-.113-.86-.34a1.234 1.234 0 0 1-.34-.88v-5.12a4 4 0 0 0-.16-1.18 1.63 1.63 0 0 0-.58-.86c-.28-.213-.68-.32-1.2-.32-.507 0-.94.107-1.3.32-.36.213-.633.5-.82.86-.173.347-.26.74-.26 1.18v5.12c0 .347-.113.64-.34.88-.227.227-.513.34-.86.34s-.633-.113-.86-.34a1.234 1.234 0 0 1-.34-.88v-8.26c0-.347.113-.633.34-.86.227-.24.513-.36.86-.36s.633.12.86.36c.227.227.34.513.34.86v.86l-.3-.06c.12-.227.287-.467.5-.72a4.15 4.15 0 0 1 .78-.74 3.926 3.926 0 0 1 1.02-.54 3.3 3.3 0 0 1 1.22-.22Zm20.758.2c.346 0 .633.12.86.36.226.227.34.513.34.86v5.08c0 1.413-.394 2.533-1.18 3.36-.787.827-1.92 1.24-3.4 1.24s-2.614-.413-3.4-1.24c-.774-.827-1.16-1.947-1.16-3.36v-5.08c0-.347.113-.633.34-.86.226-.24.513-.36.86-.36.346 0 .633.12.86.36.226.227.34.513.34.86v5.08c0 .813.18 1.42.54 1.82.36.387.9.58 1.62.58.733 0 1.28-.193 1.64-.58.36-.4.54-1.007.54-1.82v-5.08c0-.347.113-.633.34-.86.226-.24.513-.36.86-.36Zm9.518-.2c.986 0 1.733.207 2.24.62.52.413.873.967 1.06 1.66.2.68.3 1.44.3 2.28v5.12c0 .347-.114.64-.34.88-.227.227-.513.34-.86.34s-.633-.113-.86-.34a1.234 1.234 0 0 1-.34-.88v-5.12c0-.44-.06-.833-.18-1.18a1.591 1.591 0 0 0-.6-.86c-.293-.213-.713-.32-1.26-.32-.534 0-.987.107-1.36.32-.36.213-.64.5-.84.86-.187.347-.28.74-.28 1.18v5.12c0 .347-.114.64-.34.88-.227.227-.513.34-.86.34s-.633-.113-.86-.34a1.234 1.234 0 0 1-.34-.88v-8.26c0-.347.113-.633.34-.86.227-.24.513-.36.86-.36s.633.12.86.36c.227.227.34.513.34.86v.86l-.3-.06c.12-.227.293-.467.52-.72.227-.267.493-.513.8-.74a3.843 3.843 0 0 1 1.04-.54c.386-.147.806-.22 1.26-.22Zm8.454 9.68c0 .347-.113.64-.34.88-.227.227-.513.34-.86.34s-.633-.113-.86-.34a1.234 1.234 0 0 1-.34-.88v-8.26c0-.347.113-.633.34-.86.227-.24.513-.36.86-.36s.633.12.86.36c.227.227.34.513.34.86v8.26ZM99.887 13c-.454 0-.773-.073-.96-.22-.187-.147-.28-.407-.28-.78v-.38c0-.387.1-.647.3-.78.213-.147.533-.22.96-.22.467 0 .793.073.98.22.187.147.28.407.28.78V12c0 .387-.1.653-.3.8-.2.133-.527.2-.98.2Zm3.806 1.5h4.74c.32 0 .587.107.8.32.214.213.32.48.32.8 0 .307-.106.567-.32.78-.213.2-.48.3-.8.3h-4.74c-.32 0-.586-.107-.8-.32a1.087 1.087 0 0 1-.32-.8c0-.307.107-.56.32-.76.214-.213.48-.32.8-.32Zm2.14-2.5c.347 0 .627.12.84.36.227.227.34.513.34.86v8.9c0 .187.034.34.1.46a.7.7 0 0 0 .3.26 1.18 1.18 0 0 0 .86 0c.134-.067.287-.1.46-.1.187 0 .354.087.5.26.16.173.24.413.24.72 0 .373-.206.68-.62.92-.4.24-.833.36-1.3.36-.28 0-.593-.02-.94-.06a2.861 2.861 0 0 1-.96-.34c-.293-.187-.54-.467-.74-.84-.2-.373-.3-.887-.3-1.54v-9a1.198 1.198 0 0 1 1.22-1.22Zm13.864 2.3c.347 0 .633.12.86.36.227.227.34.513.34.86v8.5c0 1.227-.233 2.2-.7 2.92a3.853 3.853 0 0 1-1.84 1.58c-.773.32-1.64.48-2.6.48-.427 0-.88-.033-1.36-.1-.48-.067-.873-.167-1.18-.3-.4-.173-.68-.393-.84-.66a.977.977 0 0 1-.08-.82c.12-.387.313-.653.58-.8.267-.133.547-.147.84-.04.213.067.493.167.84.3.347.147.747.22 1.2.22.613 0 1.12-.087 1.52-.26.413-.16.72-.44.92-.84.213-.387.32-.92.32-1.6v-1.34l.42.48c-.227.44-.513.807-.86 1.1-.333.28-.733.493-1.2.64-.467.147-1 .22-1.6.22-.707 0-1.327-.16-1.86-.48a3.44 3.44 0 0 1-1.22-1.36c-.293-.587-.44-1.253-.44-2v-5.84c0-.347.113-.633.34-.86.227-.24.513-.36.86-.36s.633.12.86.36c.227.227.34.513.34.86v5.12c0 .867.187 1.48.56 1.84.387.347.92.52 1.6.52.467 0 .86-.087 1.18-.26.32-.187.567-.453.74-.8.173-.36.26-.793.26-1.3v-5.12c0-.347.113-.633.34-.86.227-.24.513-.36.86-.36ZM18 45.2c-.933 0-1.773-.113-2.52-.34-.747-.24-1.46-.653-2.14-1.24a1.578 1.578 0 0 1-.4-.5 1.243 1.243 0 0 1-.14-.56c0-.307.107-.573.32-.8.227-.24.507-.36.84-.36.253 0 .48.08.68.24a6.448 6.448 0 0 0 1.5.94c.507.213 1.127.32 1.86.32a4.04 4.04 0 0 0 1.36-.22c.413-.16.747-.367 1-.62.253-.267.38-.567.38-.9 0-.4-.12-.74-.36-1.02s-.607-.513-1.1-.7c-.493-.2-1.12-.353-1.88-.46a8.782 8.782 0 0 1-1.9-.48 4.826 4.826 0 0 1-1.38-.84 3.503 3.503 0 0 1-.82-1.2 4.166 4.166 0 0 1-.28-1.56c0-.867.22-1.607.66-2.22.453-.613 1.06-1.08 1.82-1.4.76-.32 1.6-.48 2.52-.48.867 0 1.667.133 2.4.4.747.253 1.353.58 1.82.98.387.307.58.66.58 1.06 0 .293-.113.56-.34.8-.227.24-.493.36-.8.36-.2 0-.38-.06-.54-.18a3.39 3.39 0 0 0-.86-.52 6.46 6.46 0 0 0-1.14-.42 3.91 3.91 0 0 0-1.12-.18c-.573 0-1.06.073-1.46.22-.387.147-.68.347-.88.6-.2.253-.3.547-.3.88 0 .4.113.733.34 1 .24.253.58.46 1.02.62.44.147.967.28 1.58.4.8.147 1.5.32 2.1.52.613.2 1.12.46 1.52.78.4.307.7.7.9 1.18.2.467.3 1.04.3 1.72 0 .867-.24 1.613-.72 2.24-.48.627-1.113 1.107-1.9 1.44-.773.333-1.613.5-2.52.5Zm11.994-11.1c.76 0 1.42.08 1.98.24.573.16 1.013.387 1.32.68.32.28.48.62.48 1.02 0 .267-.08.52-.24.76-.16.227-.394.34-.7.34-.214 0-.394-.027-.54-.08a1.698 1.698 0 0 1-.36-.24 2.108 2.108 0 0 0-.38-.26c-.134-.08-.34-.14-.62-.18a3.373 3.373 0 0 0-.6-.08c-.68 0-1.26.147-1.74.44a2.94 2.94 0 0 0-1.08 1.2c-.254.493-.38 1.067-.38 1.72 0 .64.126 1.213.38 1.72.266.493.626.887 1.08 1.18.466.293 1 .44 1.6.44.333 0 .62-.02.86-.06.24-.04.44-.1.6-.18.186-.107.353-.22.5-.34.146-.12.366-.18.66-.18.346 0 .613.113.8.34.186.213.28.48.28.8 0 .333-.187.64-.56.92-.374.267-.867.487-1.48.66-.6.16-1.254.24-1.96.24-1.054 0-1.967-.24-2.74-.72a5.021 5.021 0 0 1-1.8-2c-.414-.84-.62-1.78-.62-2.82 0-1.093.22-2.053.66-2.88a4.972 4.972 0 0 1 1.86-1.96c.8-.48 1.713-.72 2.74-.72Zm7.89 9.68c0 .347-.113.64-.34.88-.226.227-.513.34-.86.34-.346 0-.633-.113-.86-.34a1.234 1.234 0 0 1-.34-.88v-8.26c0-.347.114-.633.34-.86.227-.24.514-.36.86-.36.347 0 .634.12.86.36.227.227.34.513.34.86v8.26ZM36.664 33c-.453 0-.773-.073-.96-.22-.186-.147-.28-.407-.28-.78v-.38c0-.387.1-.647.3-.78.214-.147.534-.22.96-.22.467 0 .794.073.98.22.187.147.28.407.28.78V32c0 .387-.1.653-.3.8-.2.133-.526.2-.98.2Zm8.727 12.2c-1.134 0-2.12-.233-2.96-.7a5.062 5.062 0 0 1-1.92-1.94c-.44-.813-.66-1.733-.66-2.76 0-1.2.24-2.22.72-3.06.493-.853 1.133-1.507 1.92-1.96a4.93 4.93 0 0 1 2.5-.68c.68 0 1.32.14 1.92.42.613.28 1.153.667 1.62 1.16a5.32 5.32 0 0 1 1.1 1.68c.28.64.42 1.32.42 2.04-.014.32-.14.58-.38.78-.24.2-.52.3-.84.3h-7.64l-.6-2h7.34l-.44.4v-.54a1.792 1.792 0 0 0-.42-1.04 2.465 2.465 0 0 0-.92-.72 2.483 2.483 0 0 0-1.16-.28c-.4 0-.774.053-1.12.16a2.146 2.146 0 0 0-.9.54c-.254.253-.454.593-.6 1.02-.147.427-.22.967-.22 1.62 0 .72.146 1.333.44 1.84a3.27 3.27 0 0 0 1.16 1.14c.48.253.986.38 1.52.38.493 0 .886-.04 1.18-.12.293-.08.526-.173.7-.28.186-.12.353-.22.5-.3.24-.12.466-.18.68-.18.293 0 .533.1.72.3.2.2.3.433.3.7 0 .36-.187.687-.56.98-.347.293-.834.553-1.46.78a5.98 5.98 0 0 1-1.94.32Zm12.477-11.1c.986 0 1.733.207 2.24.62.52.413.873.967 1.06 1.66.2.68.3 1.44.3 2.28v5.12c0 .347-.114.64-.34.88-.227.227-.514.34-.86.34-.347 0-.634-.113-.86-.34a1.234 1.234 0 0 1-.34-.88v-5.12c0-.44-.06-.833-.18-1.18a1.591 1.591 0 0 0-.6-.86c-.294-.213-.714-.32-1.26-.32-.534 0-.987.107-1.36.32-.36.213-.64.5-.84.86-.187.347-.28.74-.28 1.18v5.12c0 .347-.114.64-.34.88-.227.227-.514.34-.86.34-.347 0-.634-.113-.86-.34a1.234 1.234 0 0 1-.34-.88v-8.26c0-.347.113-.633.34-.86.226-.24.513-.36.86-.36.346 0 .633.12.86.36.226.227.34.513.34.86v.86l-.3-.06c.12-.227.293-.467.52-.72a4.74 4.74 0 0 1 .8-.74 3.842 3.842 0 0 1 1.04-.54c.386-.147.806-.22 1.26-.22Zm10.954 0c.76 0 1.42.08 1.98.24.573.16 1.013.387 1.32.68.32.28.48.62.48 1.02 0 .267-.08.52-.24.76-.16.227-.394.34-.7.34-.214 0-.394-.027-.54-.08a1.698 1.698 0 0 1-.36-.24 2.105 2.105 0 0 0-.38-.26c-.134-.08-.34-.14-.62-.18a3.371 3.371 0 0 0-.6-.08c-.68 0-1.26.147-1.74.44a2.94 2.94 0 0 0-1.08 1.2c-.254.493-.38 1.067-.38 1.72 0 .64.126 1.213.38 1.72.266.493.626.887 1.08 1.18.466.293 1 .44 1.6.44.333 0 .62-.02.86-.06.24-.04.44-.1.6-.18.186-.107.353-.22.5-.34.146-.12.366-.18.66-.18.346 0 .613.113.8.34.186.213.28.48.28.8 0 .333-.187.64-.56.92-.374.267-.867.487-1.48.66-.6.16-1.254.24-1.96.24-1.054 0-1.967-.24-2.74-.72a5.021 5.021 0 0 1-1.8-2c-.414-.84-.62-1.78-.62-2.82 0-1.093.22-2.053.66-2.88a4.973 4.973 0 0 1 1.86-1.96c.8-.48 1.713-.72 2.74-.72Zm10.67 11.1c-1.133 0-2.12-.233-2.96-.7a5.063 5.063 0 0 1-1.92-1.94c-.44-.813-.66-1.733-.66-2.76 0-1.2.24-2.22.72-3.06.494-.853 1.134-1.507 1.92-1.96a4.93 4.93 0 0 1 2.5-.68c.68 0 1.32.14 1.92.42a5.16 5.16 0 0 1 1.62 1.16c.467.48.834 1.04 1.1 1.68.28.64.42 1.32.42 2.04-.013.32-.14.58-.38.78-.24.2-.52.3-.84.3h-7.64l-.6-2h7.34l-.44.4v-.54a1.79 1.79 0 0 0-.42-1.04 2.464 2.464 0 0 0-.92-.72 2.483 2.483 0 0 0-1.16-.28c-.4 0-.773.053-1.12.16a2.147 2.147 0 0 0-.9.54c-.253.253-.453.593-.6 1.02-.146.427-.22.967-.22 1.62 0 .72.147 1.333.44 1.84.307.493.694.873 1.16 1.14.48.253.987.38 1.52.38.494 0 .887-.04 1.18-.12.294-.08.527-.173.7-.28.187-.12.354-.22.5-.3.24-.12.467-.18.68-.18.294 0 .534.1.72.3.2.2.3.433.3.7 0 .36-.186.687-.56.98-.346.293-.833.553-1.46.78a5.98 5.98 0 0 1-1.94.32ZM14.76 50.98c.187 0 .38.053.58.16.213.093.373.22.48.38L20.68 59l-1-.04 4.98-7.44c.253-.36.58-.54.98-.54.32 0 .607.113.86.34.253.227.38.52.38.88v11.58c0 .347-.113.64-.34.88-.227.227-.527.34-.9.34s-.68-.113-.92-.34a1.234 1.234 0 0 1-.34-.88v-9.42l.78.18-4.08 6.22a1.63 1.63 0 0 1-.46.38.89.89 0 0 1-.54.14.938.938 0 0 1-.54-.14 1.742 1.742 0 0 1-.44-.38l-3.82-6.04.52-1.06v10.12c0 .347-.107.64-.32.88-.213.227-.493.34-.84.34-.333 0-.607-.113-.82-.34a1.277 1.277 0 0 1-.32-.88V52.2c0-.333.12-.62.36-.86.253-.24.553-.36.9-.36Zm22.867 3.32c.346 0 .633.12.86.36.226.227.34.513.34.86v5.08c0 1.413-.394 2.533-1.18 3.36-.787.827-1.92 1.24-3.4 1.24s-2.614-.413-3.4-1.24c-.774-.827-1.16-1.947-1.16-3.36v-5.08c0-.347.113-.633.34-.86.226-.24.513-.36.86-.36.346 0 .633.12.86.36.226.227.34.513.34.86v5.08c0 .813.18 1.42.54 1.82.36.387.9.58 1.62.58.733 0 1.28-.193 1.64-.58.36-.4.54-1.007.54-1.82v-5.08c0-.347.113-.633.34-.86.226-.24.513-.36.86-.36Zm3.178 9.04c-.133-.187-.193-.427-.18-.72.013-.293.187-.547.52-.76.213-.133.44-.187.68-.16.24.013.473.133.7.36.387.387.793.687 1.22.9.427.213.96.32 1.6.32.2-.013.42-.04.66-.08.24-.053.447-.16.62-.32.187-.173.28-.433.28-.78 0-.293-.1-.527-.3-.7a2.52 2.52 0 0 0-.8-.44c-.32-.12-.68-.233-1.08-.34-.413-.12-.84-.253-1.28-.4a5.655 5.655 0 0 1-1.18-.56 2.834 2.834 0 0 1-.88-.94c-.227-.387-.34-.873-.34-1.46 0-.667.187-1.233.56-1.7a3.67 3.67 0 0 1 1.44-1.08c.6-.253 1.227-.38 1.88-.38.413 0 .847.053 1.3.16.453.093.887.253 1.3.48.413.213.76.5 1.04.86.147.2.233.44.26.72.027.28-.1.533-.38.76-.2.16-.433.233-.7.22a1.105 1.105 0 0 1-.66-.28 2.349 2.349 0 0 0-.92-.7c-.373-.173-.807-.26-1.3-.26-.2 0-.42.027-.66.08-.227.04-.427.14-.6.3-.173.147-.26.387-.26.72 0 .307.1.553.3.74.2.173.467.32.8.44.347.107.713.213 1.1.32.4.107.807.233 1.22.38.413.147.793.34 1.14.58.347.24.627.553.84.94.213.373.32.853.32 1.44 0 .68-.2 1.26-.6 1.74-.4.48-.9.847-1.5 1.1-.6.24-1.213.36-1.84.36a7.311 7.311 0 0 1-2.36-.4 4.149 4.149 0 0 1-1.96-1.46Zm15.308 1.86c-1.133 0-2.12-.233-2.96-.7a5.063 5.063 0 0 1-1.92-1.94c-.44-.813-.66-1.733-.66-2.76 0-1.2.24-2.22.72-3.06.494-.853 1.134-1.507 1.92-1.96a4.93 4.93 0 0 1 2.5-.68c.68 0 1.32.14 1.92.42a5.16 5.16 0 0 1 1.62 1.16c.467.48.834 1.04 1.1 1.68.28.64.42 1.32.42 2.04-.013.32-.14.58-.38.78-.24.2-.52.3-.84.3h-7.64l-.6-2h7.34l-.44.4v-.54a1.79 1.79 0 0 0-.42-1.04 2.464 2.464 0 0 0-.92-.72 2.483 2.483 0 0 0-1.16-.28c-.4 0-.773.053-1.12.16a2.147 2.147 0 0 0-.9.54c-.253.253-.453.593-.6 1.02-.146.427-.22.967-.22 1.62 0 .72.147 1.333.44 1.84.307.493.694.873 1.16 1.14.48.253.987.38 1.52.38.494 0 .887-.04 1.18-.12.294-.08.527-.173.7-.28.187-.12.354-.22.5-.3.24-.12.467-.18.68-.18.294 0 .534.1.72.3.2.2.3.433.3.7 0 .36-.186.687-.56.98-.346.293-.833.553-1.46.78a5.98 5.98 0 0 1-1.94.32ZM70.81 54.3c.347 0 .634.12.86.36.227.227.34.513.34.86v5.08c0 1.413-.393 2.533-1.18 3.36-.786.827-1.92 1.24-3.4 1.24s-2.613-.413-3.4-1.24c-.773-.827-1.16-1.947-1.16-3.36v-5.08c0-.347.114-.633.34-.86.227-.24.514-.36.86-.36.347 0 .634.12.86.36.227.227.34.513.34.86v5.08c0 .813.18 1.42.54 1.82.36.387.9.58 1.62.58.734 0 1.28-.193 1.64-.58.36-.4.54-1.007.54-1.82v-5.08c0-.347.114-.633.34-.86.227-.24.514-.36.86-.36Zm9.419-.2c1.066 0 1.853.26 2.36.78.506.507.84 1.167 1 1.98l-.34-.18.16-.32c.16-.307.406-.633.74-.98.333-.36.733-.66 1.2-.9a3.375 3.375 0 0 1 1.6-.38c.96 0 1.686.207 2.18.62.506.413.853.967 1.04 1.66.186.68.28 1.44.28 2.28v5.12c0 .347-.114.64-.34.88-.227.227-.514.34-.86.34-.347 0-.634-.113-.86-.34a1.234 1.234 0 0 1-.34-.88v-5.12c0-.44-.054-.833-.16-1.18a1.63 1.63 0 0 0-.58-.86c-.28-.213-.68-.32-1.2-.32-.507 0-.94.107-1.3.32-.36.213-.634.5-.82.86-.174.347-.26.74-.26 1.18v5.12c0 .347-.114.64-.34.88-.227.227-.514.34-.86.34-.347 0-.634-.113-.86-.34a1.234 1.234 0 0 1-.34-.88v-5.12c0-.44-.054-.833-.16-1.18a1.63 1.63 0 0 0-.58-.86c-.28-.213-.68-.32-1.2-.32-.507 0-.94.107-1.3.32-.36.213-.634.5-.82.86-.174.347-.26.74-.26 1.18v5.12c0 .347-.114.64-.34.88-.227.227-.514.34-.86.34-.347 0-.634-.113-.86-.34a1.234 1.234 0 0 1-.34-.88v-8.26c0-.347.113-.633.34-.86.226-.24.513-.36.86-.36.346 0 .633.12.86.36.226.227.34.513.34.86v.86l-.3-.06c.12-.227.286-.467.5-.72.213-.267.473-.513.78-.74a3.926 3.926 0 0 1 1.02-.54 3.3 3.3 0 0 1 1.22-.22Z"/>
  <path fill="#AA1252" d="M0 54V20h2v34z"/>
  <path fill="#6B30D2" d="M12 0h42v2H12z"/>
</svg>
