<svg width="115" height="76" viewBox="0 0 115 76" fill="none" xmlns="http://www.w3.org/2000/svg">
<rect x="12" y="74" width="42" height="2" fill="#03D054"/>
<path d="M19.68 24.34C19.0933 24.34 18.4733 24.2467 17.82 24.06C17.1667 23.8733 16.5267 23.5933 15.9 23.22C15.2733 22.8467 14.7 22.3733 14.18 21.8C13.6733 21.2133 13.2667 20.5333 12.96 19.76C12.6667 18.9733 12.52 18.08 12.52 17.08C12.52 16.12 12.6667 15.2667 12.96 14.52C13.2667 13.76 13.6733 13.1 14.18 12.54C14.6867 11.98 15.2533 11.52 15.88 11.16C16.5067 10.7867 17.1533 10.5133 17.82 10.34C18.4867 10.1533 19.12 10.06 19.72 10.06C20.4 10.06 20.9933 10.14 21.5 10.3C22.0067 10.46 22.42 10.6267 22.74 10.8C23.06 10.96 23.26 11.0733 23.34 11.14C23.58 11.2867 23.8067 11.4533 24.02 11.64C24.2333 11.8267 24.3467 12.0733 24.36 12.38C24.36 12.54 24.3267 12.7 24.26 12.86C24.2067 13.0067 24.12 13.1667 24 13.34C23.7867 13.6467 23.58 13.8733 23.38 14.02C23.1933 14.1533 23 14.22 22.8 14.22C22.64 14.22 22.4867 14.18 22.34 14.1C22.2067 14.02 22.0333 13.9133 21.82 13.78C21.7267 13.7133 21.5933 13.6333 21.42 13.54C21.2467 13.4333 21.0133 13.34 20.72 13.26C20.4267 13.1667 20.0533 13.12 19.6 13.12C19.1333 13.12 18.66 13.2067 18.18 13.38C17.7133 13.54 17.28 13.7867 16.88 14.12C16.48 14.4533 16.16 14.88 15.92 15.4C15.68 15.9067 15.56 16.5 15.56 17.18C15.56 17.8867 15.68 18.4933 15.92 19C16.1733 19.5067 16.5 19.9267 16.9 20.26C17.3 20.5933 17.7333 20.8467 18.2 21.02C18.68 21.18 19.1467 21.26 19.6 21.26C20 21.26 20.34 21.22 20.62 21.14C20.9133 21.06 21.16 20.9667 21.36 20.86C21.5733 20.74 21.7533 20.6333 21.9 20.54C22.0467 20.4467 22.1933 20.36 22.34 20.28C22.5 20.2 22.66 20.16 22.82 20.16C23.0067 20.16 23.1933 20.2333 23.38 20.38C23.58 20.5267 23.78 20.76 23.98 21.08C24.1 21.2533 24.1933 21.4267 24.26 21.6C24.3267 21.76 24.3533 21.92 24.34 22.08C24.34 22.36 24.2333 22.5933 24.02 22.78C23.8067 22.9533 23.58 23.1133 23.34 23.26C23.2333 23.3133 23.0267 23.4333 22.72 23.62C22.4133 23.7933 22.0067 23.9533 21.5 24.1C20.9933 24.26 20.3867 24.34 19.68 24.34ZM30.4716 24.34C29.8449 24.34 29.2182 24.22 28.5916 23.98C27.9782 23.7267 27.4182 23.3733 26.9116 22.92C26.4049 22.4667 26.0049 21.9267 25.7116 21.3C25.4182 20.66 25.2716 19.9533 25.2716 19.18C25.2716 18.46 25.4049 17.7933 25.6716 17.18C25.9382 16.5533 26.3116 16 26.7916 15.52C27.2716 15.04 27.8182 14.6667 28.4316 14.4C29.0582 14.12 29.7249 13.98 30.4316 13.98C31.3916 13.98 32.2582 14.2133 33.0316 14.68C33.8182 15.1333 34.4449 15.7533 34.9116 16.54C35.3782 17.3267 35.6116 18.2 35.6116 19.16C35.6116 19.9733 35.4582 20.7 35.1516 21.34C34.8582 21.9667 34.4582 22.5067 33.9516 22.96C33.4582 23.4133 32.9049 23.76 32.2916 24C31.6916 24.2267 31.0849 24.34 30.4716 24.34ZM30.4316 21.32C30.7516 21.32 31.0782 21.24 31.4116 21.08C31.7449 20.92 32.0249 20.68 32.2516 20.36C32.4782 20.04 32.5916 19.6333 32.5916 19.14C32.5916 18.7133 32.4982 18.34 32.3116 18.02C32.1249 17.7 31.8649 17.4533 31.5316 17.28C31.2116 17.0933 30.8382 17 30.4116 17C30.0116 17 29.6516 17.0933 29.3316 17.28C29.0249 17.4667 28.7716 17.7267 28.5716 18.06C28.3849 18.38 28.2916 18.7467 28.2916 19.16C28.2916 19.64 28.3982 20.0467 28.6116 20.38C28.8382 20.7 29.1182 20.94 29.4516 21.1C29.7849 21.2467 30.1116 21.32 30.4316 21.32ZM38.3034 24.18C37.8234 24.18 37.4768 24.1067 37.2634 23.96C37.0501 23.8133 36.9234 23.6267 36.8834 23.4C36.8434 23.1733 36.8234 22.9267 36.8234 22.66V15.66C36.8234 15.3933 36.8434 15.1533 36.8834 14.94C36.9368 14.7133 37.0701 14.5333 37.2834 14.4C37.4968 14.2533 37.8501 14.18 38.3434 14.18C38.8368 14.18 39.1968 14.28 39.4234 14.48C39.6501 14.6667 39.7634 14.98 39.7634 15.42L39.5034 15.64C39.5301 15.5733 39.6101 15.46 39.7434 15.3C39.8768 15.14 40.0501 14.9733 40.2634 14.8C40.4768 14.6267 40.7234 14.48 41.0034 14.36C41.2968 14.2267 41.6101 14.16 41.9434 14.16C42.3834 14.16 42.7768 14.2267 43.1234 14.36C43.4834 14.48 43.8034 14.6667 44.0834 14.92C44.3768 15.16 44.6301 15.4667 44.8434 15.84C45.0301 15.5733 45.2568 15.3133 45.5234 15.06C45.7901 14.8067 46.1034 14.5933 46.4634 14.42C46.8368 14.2467 47.2501 14.16 47.7034 14.16C48.4768 14.16 49.1301 14.36 49.6634 14.76C50.2101 15.1467 50.6234 15.7067 50.9034 16.44C51.1834 17.1733 51.3234 18.06 51.3234 19.1V22.68C51.3234 22.9333 51.2968 23.18 51.2434 23.42C51.2034 23.6467 51.0768 23.8333 50.8634 23.98C50.6501 24.1133 50.2968 24.18 49.8034 24.18C49.3101 24.18 48.9568 24.1067 48.7434 23.96C48.5434 23.8133 48.4168 23.6267 48.3634 23.4C48.3234 23.16 48.3034 22.9133 48.3034 22.66V19.08C48.3034 18.6667 48.2568 18.32 48.1634 18.04C48.0701 17.76 47.9234 17.5467 47.7234 17.4C47.5368 17.24 47.2968 17.16 47.0034 17.16C46.6968 17.16 46.4368 17.2333 46.2234 17.38C46.0101 17.5133 45.8501 17.7267 45.7434 18.02C45.6368 18.3 45.5834 18.66 45.5834 19.1V22.68C45.5834 22.9467 45.5501 23.2 45.4834 23.44C45.4168 23.6667 45.2701 23.8533 45.0434 24C44.8301 24.1333 44.4834 24.1933 44.0034 24.18C43.5234 24.1667 43.1834 24.0867 42.9834 23.94C42.7834 23.7933 42.6634 23.6067 42.6234 23.38C42.5834 23.14 42.5634 22.9 42.5634 22.66V19.08C42.5634 18.6667 42.5168 18.32 42.4234 18.04C42.3301 17.7467 42.1901 17.5267 42.0034 17.38C41.8168 17.2333 41.5701 17.16 41.2634 17.16C40.9301 17.16 40.6568 17.2467 40.4434 17.42C40.2301 17.5933 40.0701 17.8267 39.9634 18.12C39.8701 18.4 39.8234 18.72 39.8234 19.08V22.68C39.8234 22.9467 39.7968 23.1933 39.7434 23.42C39.7034 23.6467 39.5768 23.8333 39.3634 23.98C39.1501 24.1133 38.7968 24.18 38.3034 24.18ZM54.3581 24.18C53.8781 24.18 53.5315 24.1067 53.3181 23.96C53.1048 23.8133 52.9781 23.6267 52.9381 23.4C52.8981 23.1733 52.8781 22.9267 52.8781 22.66V15.66C52.8781 15.3933 52.8981 15.1533 52.9381 14.94C52.9915 14.7133 53.1248 14.5333 53.3381 14.4C53.5515 14.2533 53.9048 14.18 54.3981 14.18C54.8915 14.18 55.2515 14.28 55.4781 14.48C55.7048 14.6667 55.8181 14.98 55.8181 15.42L55.5581 15.64C55.5848 15.5733 55.6648 15.46 55.7981 15.3C55.9315 15.14 56.1048 14.9733 56.3181 14.8C56.5315 14.6267 56.7781 14.48 57.0581 14.36C57.3515 14.2267 57.6648 14.16 57.9981 14.16C58.4381 14.16 58.8315 14.2267 59.1781 14.36C59.5381 14.48 59.8581 14.6667 60.1381 14.92C60.4315 15.16 60.6848 15.4667 60.8981 15.84C61.0848 15.5733 61.3115 15.3133 61.5781 15.06C61.8448 14.8067 62.1581 14.5933 62.5181 14.42C62.8915 14.2467 63.3048 14.16 63.7581 14.16C64.5315 14.16 65.1848 14.36 65.7181 14.76C66.2648 15.1467 66.6781 15.7067 66.9581 16.44C67.2381 17.1733 67.3781 18.06 67.3781 19.1V22.68C67.3781 22.9333 67.3515 23.18 67.2981 23.42C67.2581 23.6467 67.1315 23.8333 66.9181 23.98C66.7048 24.1133 66.3515 24.18 65.8581 24.18C65.3648 24.18 65.0115 24.1067 64.7981 23.96C64.5981 23.8133 64.4715 23.6267 64.4181 23.4C64.3781 23.16 64.3581 22.9133 64.3581 22.66V19.08C64.3581 18.6667 64.3115 18.32 64.2181 18.04C64.1248 17.76 63.9781 17.5467 63.7781 17.4C63.5915 17.24 63.3515 17.16 63.0581 17.16C62.7515 17.16 62.4915 17.2333 62.2781 17.38C62.0648 17.5133 61.9048 17.7267 61.7981 18.02C61.6915 18.3 61.6381 18.66 61.6381 19.1V22.68C61.6381 22.9467 61.6048 23.2 61.5381 23.44C61.4715 23.6667 61.3248 23.8533 61.0981 24C60.8848 24.1333 60.5381 24.1933 60.0581 24.18C59.5781 24.1667 59.2381 24.0867 59.0381 23.94C58.8381 23.7933 58.7181 23.6067 58.6781 23.38C58.6381 23.14 58.6181 22.9 58.6181 22.66V19.08C58.6181 18.6667 58.5715 18.32 58.4781 18.04C58.3848 17.7467 58.2448 17.5267 58.0581 17.38C57.8715 17.2333 57.6248 17.16 57.3181 17.16C56.9848 17.16 56.7115 17.2467 56.4981 17.42C56.2848 17.5933 56.1248 17.8267 56.0181 18.12C55.9248 18.4 55.8781 18.72 55.8781 19.08V22.68C55.8781 22.9467 55.8515 23.1933 55.7981 23.42C55.7581 23.6467 55.6315 23.8333 55.4181 23.98C55.2048 24.1133 54.8515 24.18 54.3581 24.18ZM73.2528 24.16C72.6395 24.16 72.0595 24.04 71.5128 23.8C70.9795 23.56 70.5128 23.2267 70.1128 22.8C69.7128 22.36 69.3995 21.8467 69.1728 21.26C68.9595 20.66 68.8528 20.0067 68.8528 19.3V15.68C68.8528 15.4133 68.8795 15.1667 68.9328 14.94C68.9861 14.7133 69.1128 14.5267 69.3128 14.38C69.5261 14.2333 69.8795 14.16 70.3728 14.16C70.8661 14.16 71.2128 14.2333 71.4128 14.38C71.6261 14.5267 71.7528 14.72 71.7928 14.96C71.8461 15.1867 71.8728 15.4333 71.8728 15.7V19.3C71.8728 19.6867 71.9395 20.0267 72.0728 20.32C72.2195 20.6 72.4261 20.8133 72.6928 20.96C72.9728 21.1067 73.2995 21.18 73.6728 21.18C74.0595 21.18 74.3861 21.1067 74.6528 20.96C74.9328 20.8 75.1461 20.58 75.2928 20.3C75.4528 20.02 75.5328 19.6867 75.5328 19.3V15.66C75.5328 15.3933 75.5595 15.1467 75.6128 14.92C75.6661 14.6933 75.7928 14.5133 75.9928 14.38C76.2061 14.2333 76.5595 14.16 77.0528 14.16C77.5461 14.16 77.8928 14.2333 78.0928 14.38C78.3061 14.5267 78.4328 14.72 78.4728 14.96C78.5261 15.1867 78.5528 15.4267 78.5528 15.68V22.72C78.5528 22.9733 78.5261 23.2133 78.4728 23.44C78.4328 23.6533 78.3061 23.8267 78.0928 23.96C77.8795 24.0933 77.5328 24.16 77.0528 24.16C76.6928 24.16 76.4128 24.12 76.2128 24.04C76.0128 23.96 75.8661 23.86 75.7728 23.74C75.6795 23.62 75.6195 23.4933 75.5928 23.36C75.5795 23.2267 75.5728 23.1067 75.5728 23L75.8328 22.78C75.7928 22.8333 75.7061 22.9333 75.5728 23.08C75.4395 23.2267 75.2595 23.3867 75.0328 23.56C74.8195 23.72 74.5661 23.86 74.2728 23.98C73.9795 24.1 73.6395 24.16 73.2528 24.16ZM81.6442 24.16C81.1509 24.16 80.7976 24.0933 80.5842 23.96C80.3842 23.8133 80.2576 23.6267 80.2042 23.4C80.1642 23.16 80.1442 22.9133 80.1442 22.66V15.62C80.1442 15.3667 80.1709 15.1333 80.2242 14.92C80.2776 14.6933 80.4042 14.5133 80.6042 14.38C80.8176 14.2467 81.1709 14.18 81.6642 14.18C82.0909 14.18 82.4042 14.24 82.6042 14.36C82.8042 14.4667 82.9309 14.6 82.9842 14.76C83.0509 14.92 83.0842 15.0733 83.0842 15.22C83.0842 15.3533 83.0976 15.4467 83.1242 15.5L83.0042 15.88C83.0309 15.68 83.1309 15.48 83.3042 15.28C83.4909 15.0667 83.7176 14.88 83.9842 14.72C84.2642 14.5467 84.5576 14.4133 84.8642 14.32C85.1842 14.2267 85.4976 14.18 85.8042 14.18C86.4442 14.18 87.0109 14.3 87.5042 14.54C88.0109 14.7667 88.4376 15.1 88.7842 15.54C89.1309 15.98 89.3909 16.5 89.5642 17.1C89.7509 17.6867 89.8442 18.3333 89.8442 19.04V22.68C89.8442 22.9333 89.8176 23.18 89.7642 23.42C89.7242 23.6467 89.5976 23.8267 89.3842 23.96C89.1842 24.0933 88.8376 24.16 88.3442 24.16C87.8376 24.16 87.4776 24.0933 87.2642 23.96C87.0642 23.8133 86.9376 23.6267 86.8842 23.4C86.8309 23.16 86.8042 22.9133 86.8042 22.66V19.04C86.8042 18.64 86.7376 18.3 86.6042 18.02C86.4709 17.74 86.2709 17.5267 86.0042 17.38C85.7376 17.22 85.4109 17.14 85.0242 17.14C84.6376 17.14 84.3042 17.22 84.0242 17.38C83.7442 17.54 83.5242 17.76 83.3642 18.04C83.2176 18.32 83.1442 18.6533 83.1442 19.04V22.68C83.1442 22.9333 83.1176 23.18 83.0642 23.42C83.0242 23.6467 82.8976 23.8267 82.6842 23.96C82.4842 24.0933 82.1376 24.16 81.6442 24.16ZM93.0138 24.18C92.5204 24.18 92.1671 24.1133 91.9538 23.98C91.7538 23.8333 91.6271 23.6467 91.5738 23.42C91.5338 23.18 91.5138 22.9333 91.5138 22.68V15.7C91.5138 15.4333 91.5338 15.1867 91.5738 14.96C91.6271 14.7333 91.7604 14.5533 91.9738 14.42C92.1871 14.2733 92.5404 14.2 93.0338 14.2C93.5138 14.2 93.8538 14.2733 94.0538 14.42C94.2671 14.5667 94.3938 14.7533 94.4338 14.98C94.4871 15.2067 94.5138 15.46 94.5138 15.74V22.7C94.5138 22.9533 94.4871 23.2 94.4338 23.44C94.3938 23.6667 94.2671 23.8467 94.0538 23.98C93.8538 24.1133 93.5071 24.18 93.0138 24.18ZM93.0138 12.74C92.5071 12.74 92.1471 12.6667 91.9338 12.52C91.7204 12.3733 91.5871 12.18 91.5338 11.94C91.4938 11.7 91.4738 11.4467 91.4738 11.18C91.4738 10.9 91.5004 10.6467 91.5538 10.42C91.6071 10.18 91.7404 9.99333 91.9538 9.86C92.1671 9.71333 92.5271 9.64 93.0338 9.64C93.5271 9.64 93.8804 9.71333 94.0938 9.86C94.3071 10.0067 94.4338 10.2 94.4738 10.44C94.5271 10.68 94.5538 10.9333 94.5538 11.2C94.5538 11.4667 94.5271 11.72 94.4738 11.96C94.4338 12.2 94.3071 12.3933 94.0938 12.54C93.8804 12.6733 93.5204 12.74 93.0138 12.74ZM101.261 24.18C100.581 24.18 99.9941 24.1067 99.5008 23.96C99.0208 23.8133 98.6208 23.5867 98.3008 23.28C97.9808 22.9733 97.7408 22.5867 97.5808 22.12C97.4341 21.64 97.3608 21.0733 97.3608 20.42V12.3C97.3608 12.0333 97.3808 11.7933 97.4208 11.58C97.4741 11.3667 97.6074 11.1933 97.8208 11.06C98.0341 10.9133 98.3808 10.84 98.8608 10.84C99.3408 10.84 99.6874 10.9133 99.9008 11.06C100.114 11.2067 100.241 11.3933 100.281 11.62C100.334 11.8467 100.361 12.0933 100.361 12.36V20.3C100.361 20.5133 100.374 20.6933 100.401 20.84C100.441 20.9733 100.494 21.0733 100.561 21.14C100.627 21.2067 100.721 21.2533 100.841 21.28C100.961 21.3067 101.107 21.32 101.281 21.32C101.574 21.32 101.834 21.3467 102.061 21.4C102.287 21.4533 102.461 21.5733 102.581 21.76C102.714 21.9467 102.781 22.26 102.781 22.7C102.781 23.18 102.707 23.5267 102.561 23.74C102.414 23.9533 102.221 24.08 101.981 24.12C101.754 24.16 101.514 24.18 101.261 24.18ZM96.7408 14.34H98.9408L101.701 14.26C101.954 14.26 102.194 14.2867 102.421 14.34C102.647 14.38 102.834 14.5067 102.981 14.72C103.127 14.9333 103.201 15.2867 103.201 15.78C103.201 16.2333 103.127 16.5667 102.981 16.78C102.847 16.9933 102.667 17.1333 102.441 17.2C102.214 17.2533 101.967 17.28 101.701 17.28L99.0808 17.22H96.6608C96.2741 17.2067 96.0008 17.0933 95.8408 16.88C95.6941 16.6533 95.6208 16.28 95.6208 15.76C95.6208 15.28 95.7141 14.9267 95.9008 14.7C96.0874 14.46 96.3674 14.34 96.7408 14.34ZM106.969 28.22C106.422 27.98 106.102 27.7133 106.009 27.42C105.929 27.1267 106.002 26.7333 106.229 26.24L111.249 15.02C111.475 14.5 111.722 14.1933 111.989 14.1C112.269 13.9933 112.682 14.0467 113.229 14.26C113.762 14.5133 114.069 14.78 114.149 15.06C114.242 15.34 114.182 15.7133 113.969 16.18L108.929 27.48C108.702 28 108.455 28.3133 108.189 28.42C107.922 28.5267 107.515 28.46 106.969 28.22ZM108.709 23.56L104.009 16.4C103.715 15.96 103.595 15.5933 103.649 15.3C103.715 15.0067 103.982 14.7067 104.449 14.4C104.969 14.08 105.369 13.96 105.649 14.04C105.942 14.1067 106.235 14.3667 106.529 14.82L109.989 20.12L108.709 23.56ZM17.42 44.38C16.7133 44.38 16.0933 44.2933 15.56 44.12C15.04 43.9467 14.5933 43.74 14.22 43.5C13.86 43.2467 13.5733 43 13.36 42.76C13.1467 42.52 13 42.34 12.92 42.22C12.6933 41.9267 12.5533 41.6733 12.5 41.46C12.4467 41.2333 12.4733 41.0067 12.58 40.78C12.7 40.5533 12.9 40.3067 13.18 40.04C13.46 39.8 13.72 39.6733 13.96 39.66C14.2133 39.6333 14.46 39.6933 14.7 39.84C14.94 39.9867 15.1733 40.1933 15.4 40.46C15.72 40.8467 16.0333 41.12 16.34 41.28C16.66 41.4267 16.9933 41.5 17.34 41.5C17.78 41.5 18.1533 41.4467 18.46 41.34C18.7667 41.2333 19 41.0667 19.16 40.84C19.32 40.6 19.4 40.3 19.4 39.94C19.4 39.6467 19.2867 39.4133 19.06 39.24C18.8467 39.0533 18.5533 38.8933 18.18 38.76C17.82 38.6267 17.4133 38.5 16.96 38.38C16.52 38.2467 16.08 38.0933 15.64 37.92C15.3333 37.8133 15.04 37.68 14.76 37.52C14.48 37.36 14.2133 37.18 13.96 36.98C13.7067 36.78 13.4867 36.54 13.3 36.26C13.1267 35.98 12.9867 35.66 12.88 35.3C12.7867 34.94 12.74 34.5267 12.74 34.06C12.74 33.2733 12.9333 32.5733 13.32 31.96C13.7067 31.3467 14.24 30.8667 14.92 30.52C15.6133 30.16 16.4067 29.98 17.3 29.98C17.9 29.98 18.42 30.0333 18.86 30.14C19.3133 30.2467 19.6933 30.3733 20 30.52C20.3067 30.6667 20.5467 30.8133 20.72 30.96C20.9067 31.0933 21.0333 31.2 21.1 31.28C21.4733 31.6267 21.68 31.9267 21.72 32.18C21.76 32.42 21.62 32.76 21.3 33.2C20.9667 33.6667 20.6333 33.9267 20.3 33.98C19.98 34.0333 19.6133 33.92 19.2 33.64C19.04 33.4933 18.88 33.36 18.72 33.24C18.56 33.12 18.3667 33.0267 18.14 32.96C17.9267 32.88 17.64 32.84 17.28 32.84C17.0667 32.84 16.8667 32.8733 16.68 32.94C16.4933 32.9933 16.3333 33.0733 16.2 33.18C16.0667 33.2867 15.96 33.42 15.88 33.58C15.8 33.7267 15.76 33.8933 15.76 34.08C15.76 34.3867 15.86 34.6333 16.06 34.82C16.2733 35.0067 16.5467 35.16 16.88 35.28C17.2267 35.3867 17.6067 35.4933 18.02 35.6C18.4467 35.6933 18.88 35.8067 19.32 35.94C19.72 36.0733 20.1067 36.24 20.48 36.44C20.8533 36.6267 21.1867 36.8667 21.48 37.16C21.7733 37.4533 22.0067 37.82 22.18 38.26C22.3667 38.7 22.46 39.24 22.46 39.88C22.46 40.68 22.3067 41.3667 22 41.94C21.6933 42.5133 21.2867 42.98 20.78 43.34C20.2733 43.7 19.7267 43.96 19.14 44.12C18.5533 44.2933 17.98 44.38 17.42 44.38ZM28.678 44.26C28.0913 44.26 27.4913 44.1533 26.878 43.94C26.278 43.7133 25.718 43.3867 25.198 42.96C24.6913 42.52 24.2846 41.9867 23.978 41.36C23.6713 40.72 23.518 39.9867 23.518 39.16C23.518 38.3333 23.6713 37.6067 23.978 36.98C24.2846 36.3533 24.6913 35.8267 25.198 35.4C25.7046 34.9733 26.258 34.6533 26.858 34.44C27.4713 34.2133 28.0646 34.1 28.638 34.1C29.1313 34.1 29.5713 34.16 29.958 34.28C30.358 34.3867 30.6913 34.52 30.958 34.68C31.238 34.84 31.438 34.98 31.558 35.1C31.7846 35.2733 31.9846 35.4467 32.158 35.62C32.3313 35.7933 32.4113 36.02 32.398 36.3C32.3846 36.4467 32.338 36.6 32.258 36.76C32.178 36.9067 32.078 37.06 31.958 37.22C31.558 37.78 31.158 38.0333 30.758 37.98C30.558 37.94 30.3713 37.8733 30.198 37.78C30.038 37.6867 29.878 37.5933 29.718 37.5C29.5713 37.3933 29.4113 37.3067 29.238 37.24C29.0646 37.1733 28.8646 37.14 28.638 37.14C28.2513 37.14 27.9046 37.2267 27.598 37.4C27.2913 37.5733 27.0446 37.8133 26.858 38.12C26.6846 38.4267 26.598 38.78 26.598 39.18C26.598 39.5667 26.6846 39.9133 26.858 40.22C27.0446 40.5267 27.2846 40.7733 27.578 40.96C27.8846 41.1333 28.2246 41.22 28.598 41.22C28.8246 41.22 29.018 41.1933 29.178 41.14C29.3513 41.0867 29.498 41.0267 29.618 40.96C29.738 40.88 29.8313 40.82 29.898 40.78C30.058 40.6733 30.2113 40.58 30.358 40.5C30.5046 40.4067 30.658 40.36 30.818 40.36C31.0046 40.36 31.198 40.4333 31.398 40.58C31.598 40.7133 31.818 40.9333 32.058 41.24C32.2713 41.52 32.3913 41.78 32.418 42.02C32.458 42.26 32.4046 42.4867 32.258 42.7C32.1113 42.9133 31.8846 43.12 31.578 43.32C31.4713 43.4133 31.278 43.5333 30.998 43.68C30.7313 43.8267 30.398 43.96 29.998 44.08C29.6113 44.2 29.1713 44.26 28.678 44.26ZM35.4356 44.18C34.9423 44.18 34.589 44.1133 34.3756 43.98C34.1756 43.8333 34.049 43.6467 33.9956 43.42C33.9556 43.18 33.9356 42.9333 33.9356 42.68V35.7C33.9356 35.4333 33.9556 35.1867 33.9956 34.96C34.049 34.7333 34.1823 34.5533 34.3956 34.42C34.609 34.2733 34.9623 34.2 35.4556 34.2C35.9356 34.2 36.2756 34.2733 36.4756 34.42C36.689 34.5667 36.8156 34.7533 36.8556 34.98C36.909 35.2067 36.9356 35.46 36.9356 35.74V42.7C36.9356 42.9533 36.909 43.2 36.8556 43.44C36.8156 43.6667 36.689 43.8467 36.4756 43.98C36.2756 44.1133 35.929 44.18 35.4356 44.18ZM35.4356 32.74C34.929 32.74 34.569 32.6667 34.3556 32.52C34.1423 32.3733 34.009 32.18 33.9556 31.94C33.9156 31.7 33.8956 31.4467 33.8956 31.18C33.8956 30.9 33.9223 30.6467 33.9756 30.42C34.029 30.18 34.1623 29.9933 34.3756 29.86C34.589 29.7133 34.949 29.64 35.4556 29.64C35.949 29.64 36.3023 29.7133 36.5156 29.86C36.729 30.0067 36.8556 30.2 36.8956 30.44C36.949 30.68 36.9756 30.9333 36.9756 31.2C36.9756 31.4667 36.949 31.72 36.8956 31.96C36.8556 32.2 36.729 32.3933 36.5156 32.54C36.3023 32.6733 35.9423 32.74 35.4356 32.74ZM43.6394 44.36C42.706 44.36 41.8994 44.2067 41.2194 43.9C40.5527 43.5933 40.006 43.1933 39.5794 42.7C39.1527 42.1933 38.8327 41.6333 38.6194 41.02C38.4194 40.4067 38.3194 39.7933 38.3194 39.18C38.3194 38.18 38.546 37.2933 38.9994 36.52C39.4527 35.7467 40.0794 35.14 40.8794 34.7C41.6794 34.2467 42.5994 34.02 43.6394 34.02C44.4127 34.02 45.0794 34.1467 45.6394 34.4C46.2127 34.64 46.6794 34.96 47.0394 35.36C47.4127 35.7467 47.686 36.1667 47.8594 36.62C48.046 37.0733 48.1394 37.5067 48.1394 37.92C48.1394 38.6533 47.9594 39.2 47.5994 39.56C47.2527 39.9067 46.806 40.08 46.2594 40.08H41.4994C41.526 40.4267 41.646 40.72 41.8594 40.96C42.086 41.2 42.366 41.3867 42.6994 41.52C43.0327 41.6533 43.386 41.72 43.7594 41.72C44.0794 41.72 44.3594 41.7067 44.5994 41.68C44.8394 41.64 45.046 41.5933 45.2194 41.54C45.3927 41.4733 45.5527 41.4133 45.6994 41.36C45.846 41.2933 45.9727 41.24 46.0794 41.2C46.1994 41.16 46.3127 41.1333 46.4194 41.12C46.6194 41.1067 46.7994 41.1667 46.9594 41.3C47.1327 41.42 47.286 41.6067 47.4194 41.86C47.5127 42.0067 47.5727 42.1467 47.5994 42.28C47.6394 42.4133 47.6594 42.5467 47.6594 42.68C47.6594 43 47.4927 43.2867 47.1594 43.54C46.8394 43.7933 46.3794 43.9933 45.7794 44.14C45.1927 44.2867 44.4794 44.36 43.6394 44.36ZM41.4994 38.44H44.6594C44.8727 38.44 45.026 38.4067 45.1194 38.34C45.226 38.26 45.2794 38.1133 45.2794 37.9C45.2794 37.66 45.206 37.4533 45.0594 37.28C44.9127 37.0933 44.7127 36.9533 44.4594 36.86C44.2194 36.7533 43.9394 36.7 43.6194 36.7C43.206 36.7 42.8394 36.78 42.5194 36.94C42.1994 37.1 41.946 37.3133 41.7594 37.58C41.586 37.8467 41.4994 38.1333 41.4994 38.44ZM50.9216 44.16C50.4282 44.16 50.0749 44.0933 49.8616 43.96C49.6616 43.8133 49.5349 43.6267 49.4816 43.4C49.4416 43.16 49.4216 42.9133 49.4216 42.66V35.62C49.4216 35.3667 49.4482 35.1333 49.5016 34.92C49.5549 34.6933 49.6816 34.5133 49.8816 34.38C50.0949 34.2467 50.4482 34.18 50.9416 34.18C51.3682 34.18 51.6816 34.24 51.8816 34.36C52.0816 34.4667 52.2082 34.6 52.2616 34.76C52.3282 34.92 52.3616 35.0733 52.3616 35.22C52.3616 35.3533 52.3749 35.4467 52.4016 35.5L52.2816 35.88C52.3082 35.68 52.4082 35.48 52.5816 35.28C52.7682 35.0667 52.9949 34.88 53.2616 34.72C53.5416 34.5467 53.8349 34.4133 54.1416 34.32C54.4616 34.2267 54.7749 34.18 55.0816 34.18C55.7216 34.18 56.2882 34.3 56.7816 34.54C57.2882 34.7667 57.7149 35.1 58.0616 35.54C58.4082 35.98 58.6682 36.5 58.8416 37.1C59.0282 37.6867 59.1216 38.3333 59.1216 39.04V42.68C59.1216 42.9333 59.0949 43.18 59.0416 43.42C59.0016 43.6467 58.8749 43.8267 58.6616 43.96C58.4616 44.0933 58.1149 44.16 57.6216 44.16C57.1149 44.16 56.7549 44.0933 56.5416 43.96C56.3416 43.8133 56.2149 43.6267 56.1616 43.4C56.1082 43.16 56.0816 42.9133 56.0816 42.66V39.04C56.0816 38.64 56.0149 38.3 55.8816 38.02C55.7482 37.74 55.5482 37.5267 55.2816 37.38C55.0149 37.22 54.6882 37.14 54.3016 37.14C53.9149 37.14 53.5816 37.22 53.3016 37.38C53.0216 37.54 52.8016 37.76 52.6416 38.04C52.4949 38.32 52.4216 38.6533 52.4216 39.04V42.68C52.4216 42.9333 52.3949 43.18 52.3416 43.42C52.3016 43.6467 52.1749 43.8267 51.9616 43.96C51.7616 44.0933 51.4149 44.16 50.9216 44.16ZM65.6311 44.26C65.0444 44.26 64.4444 44.1533 63.8311 43.94C63.2311 43.7133 62.6711 43.3867 62.1511 42.96C61.6444 42.52 61.2378 41.9867 60.9311 41.36C60.6244 40.72 60.4711 39.9867 60.4711 39.16C60.4711 38.3333 60.6244 37.6067 60.9311 36.98C61.2378 36.3533 61.6444 35.8267 62.1511 35.4C62.6578 34.9733 63.2111 34.6533 63.8111 34.44C64.4244 34.2133 65.0178 34.1 65.5911 34.1C66.0844 34.1 66.5244 34.16 66.9111 34.28C67.3111 34.3867 67.6444 34.52 67.9111 34.68C68.1911 34.84 68.3911 34.98 68.5111 35.1C68.7378 35.2733 68.9378 35.4467 69.1111 35.62C69.2844 35.7933 69.3644 36.02 69.3511 36.3C69.3378 36.4467 69.2911 36.6 69.2111 36.76C69.1311 36.9067 69.0311 37.06 68.9111 37.22C68.5111 37.78 68.1111 38.0333 67.7111 37.98C67.5111 37.94 67.3244 37.8733 67.1511 37.78C66.9911 37.6867 66.8311 37.5933 66.6711 37.5C66.5244 37.3933 66.3644 37.3067 66.1911 37.24C66.0178 37.1733 65.8178 37.14 65.5911 37.14C65.2044 37.14 64.8578 37.2267 64.5511 37.4C64.2444 37.5733 63.9978 37.8133 63.8111 38.12C63.6378 38.4267 63.5511 38.78 63.5511 39.18C63.5511 39.5667 63.6378 39.9133 63.8111 40.22C63.9978 40.5267 64.2378 40.7733 64.5311 40.96C64.8378 41.1333 65.1778 41.22 65.5511 41.22C65.7778 41.22 65.9711 41.1933 66.1311 41.14C66.3044 41.0867 66.4511 41.0267 66.5711 40.96C66.6911 40.88 66.7844 40.82 66.8511 40.78C67.0111 40.6733 67.1644 40.58 67.3111 40.5C67.4578 40.4067 67.6111 40.36 67.7711 40.36C67.9578 40.36 68.1511 40.4333 68.3511 40.58C68.5511 40.7133 68.7711 40.9333 69.0111 41.24C69.2244 41.52 69.3444 41.78 69.3711 42.02C69.4111 42.26 69.3578 42.4867 69.2111 42.7C69.0644 42.9133 68.8378 43.12 68.5311 43.32C68.4244 43.4133 68.2311 43.5333 67.9511 43.68C67.6844 43.8267 67.3511 43.96 66.9511 44.08C66.5644 44.2 66.1244 44.26 65.6311 44.26ZM75.7488 44.36C74.8154 44.36 74.0088 44.2067 73.3288 43.9C72.6621 43.5933 72.1154 43.1933 71.6888 42.7C71.2621 42.1933 70.9421 41.6333 70.7288 41.02C70.5288 40.4067 70.4288 39.7933 70.4288 39.18C70.4288 38.18 70.6554 37.2933 71.1088 36.52C71.5621 35.7467 72.1888 35.14 72.9888 34.7C73.7888 34.2467 74.7088 34.02 75.7488 34.02C76.5221 34.02 77.1888 34.1467 77.7488 34.4C78.3221 34.64 78.7888 34.96 79.1488 35.36C79.5221 35.7467 79.7954 36.1667 79.9688 36.62C80.1554 37.0733 80.2487 37.5067 80.2487 37.92C80.2487 38.6533 80.0688 39.2 79.7088 39.56C79.3621 39.9067 78.9154 40.08 78.3688 40.08H73.6088C73.6354 40.4267 73.7554 40.72 73.9688 40.96C74.1954 41.2 74.4754 41.3867 74.8088 41.52C75.1421 41.6533 75.4954 41.72 75.8688 41.72C76.1888 41.72 76.4688 41.7067 76.7088 41.68C76.9488 41.64 77.1554 41.5933 77.3288 41.54C77.5021 41.4733 77.6621 41.4133 77.8088 41.36C77.9554 41.2933 78.0821 41.24 78.1888 41.2C78.3088 41.16 78.4221 41.1333 78.5288 41.12C78.7288 41.1067 78.9088 41.1667 79.0688 41.3C79.2421 41.42 79.3954 41.6067 79.5288 41.86C79.6221 42.0067 79.6821 42.1467 79.7088 42.28C79.7488 42.4133 79.7688 42.5467 79.7688 42.68C79.7688 43 79.6021 43.2867 79.2688 43.54C78.9488 43.7933 78.4888 43.9933 77.8888 44.14C77.3021 44.2867 76.5888 44.36 75.7488 44.36ZM73.6088 38.44H76.7688C76.9821 38.44 77.1354 38.4067 77.2288 38.34C77.3354 38.26 77.3888 38.1133 77.3888 37.9C77.3888 37.66 77.3154 37.4533 77.1688 37.28C77.0221 37.0933 76.8221 36.9533 76.5688 36.86C76.3288 36.7533 76.0488 36.7 75.7288 36.7C75.3154 36.7 74.9488 36.78 74.6288 36.94C74.3088 37.1 74.0554 37.3133 73.8688 37.58C73.6954 37.8467 73.6088 38.1333 73.6088 38.44ZM14.34 64.18C13.86 64.18 13.5133 64.1067 13.3 63.96C13.1 63.8133 12.9733 63.6267 12.92 63.4C12.8667 63.16 12.84 62.9067 12.84 62.64V51.7C12.84 51.4467 12.8667 51.2133 12.92 51C12.9733 50.7733 13.1067 50.5867 13.32 50.44C13.5333 50.2933 13.8867 50.22 14.38 50.22C14.7133 50.22 14.9667 50.24 15.14 50.28C15.3133 50.32 15.44 50.38 15.52 50.46C15.6 50.5267 15.6867 50.6067 15.78 50.7L20.28 56.78H19.98L24.5 50.7C24.6067 50.5667 24.7133 50.4667 24.82 50.4C24.9267 50.3333 25.06 50.2867 25.22 50.26C25.3933 50.2333 25.6333 50.22 25.94 50.22C26.42 50.22 26.7667 50.2933 26.98 50.44C27.1933 50.5867 27.3267 50.78 27.38 51.02C27.4333 51.2467 27.46 51.4867 27.46 51.74V62.68C27.46 62.9333 27.4333 63.1733 27.38 63.4C27.3267 63.6267 27.1933 63.8133 26.98 63.96C26.7667 64.1067 26.4133 64.18 25.92 64.18C25.44 64.18 25.0933 64.1067 24.88 63.96C24.6667 63.8133 24.5333 63.62 24.48 63.38C24.4267 63.14 24.4 62.8933 24.4 62.64V55.5L21.42 59.72C21.3667 59.7867 21.2933 59.88 21.2 60C21.1067 60.1067 20.9733 60.2 20.8 60.28C20.64 60.36 20.42 60.4 20.14 60.4C19.8467 60.4 19.6133 60.36 19.44 60.28C19.28 60.2 19.1533 60.1067 19.06 60C18.9667 59.8933 18.8867 59.8 18.82 59.72L15.86 55.52V62.68C15.86 62.9333 15.8333 63.1733 15.78 63.4C15.7267 63.6267 15.5933 63.8133 15.38 63.96C15.18 64.1067 14.8333 64.18 14.34 64.18ZM33.4091 64.16C32.7957 64.16 32.2157 64.04 31.6691 63.8C31.1357 63.56 30.6691 63.2267 30.2691 62.8C29.8691 62.36 29.5557 61.8467 29.3291 61.26C29.1157 60.66 29.0091 60.0067 29.0091 59.3V55.68C29.0091 55.4133 29.0357 55.1667 29.0891 54.94C29.1424 54.7133 29.2691 54.5267 29.4691 54.38C29.6824 54.2333 30.0357 54.16 30.5291 54.16C31.0224 54.16 31.3691 54.2333 31.5691 54.38C31.7824 54.5267 31.9091 54.72 31.9491 54.96C32.0024 55.1867 32.0291 55.4333 32.0291 55.7V59.3C32.0291 59.6867 32.0957 60.0267 32.2291 60.32C32.3757 60.6 32.5824 60.8133 32.8491 60.96C33.1291 61.1067 33.4557 61.18 33.8291 61.18C34.2157 61.18 34.5424 61.1067 34.8091 60.96C35.0891 60.8 35.3024 60.58 35.4491 60.3C35.6091 60.02 35.6891 59.6867 35.6891 59.3V55.66C35.6891 55.3933 35.7157 55.1467 35.7691 54.92C35.8224 54.6933 35.9491 54.5133 36.1491 54.38C36.3624 54.2333 36.7157 54.16 37.2091 54.16C37.7024 54.16 38.0491 54.2333 38.2491 54.38C38.4624 54.5267 38.5891 54.72 38.6291 54.96C38.6824 55.1867 38.7091 55.4267 38.7091 55.68V62.72C38.7091 62.9733 38.6824 63.2133 38.6291 63.44C38.5891 63.6533 38.4624 63.8267 38.2491 63.96C38.0357 64.0933 37.6891 64.16 37.2091 64.16C36.8491 64.16 36.5691 64.12 36.3691 64.04C36.1691 63.96 36.0224 63.86 35.9291 63.74C35.8357 63.62 35.7757 63.4933 35.7491 63.36C35.7357 63.2267 35.7291 63.1067 35.7291 63L35.9891 62.78C35.9491 62.8333 35.8624 62.9333 35.7291 63.08C35.5957 63.2267 35.4157 63.3867 35.1891 63.56C34.9757 63.72 34.7224 63.86 34.4291 63.98C34.1357 64.1 33.7957 64.16 33.4091 64.16ZM43.9005 64.34C43.5405 64.34 43.1471 64.3 42.7205 64.22C42.3071 64.14 41.9005 64.0267 41.5005 63.88C41.1005 63.72 40.7671 63.54 40.5005 63.34C40.2338 63.1267 40.0805 62.8867 40.0405 62.62C40.0138 62.4867 40.0138 62.3467 40.0405 62.2C40.0805 62.04 40.1471 61.88 40.2405 61.72C40.3338 61.5467 40.4471 61.3667 40.5805 61.18C40.6871 61.0333 40.8071 60.94 40.9405 60.9C41.0738 60.86 41.2271 60.8667 41.4005 60.92C41.6138 60.96 41.8271 61.0333 42.0405 61.14C42.2671 61.2333 42.4871 61.34 42.7005 61.46C42.9271 61.5667 43.1605 61.6667 43.4005 61.76C43.6405 61.84 43.8871 61.88 44.1405 61.88C44.5138 61.88 44.8005 61.8267 45.0005 61.72C45.2138 61.6 45.3205 61.44 45.3205 61.24C45.3205 61.0933 45.2738 60.9733 45.1805 60.88C45.1005 60.7867 44.9805 60.7067 44.8205 60.64C44.6738 60.56 44.5005 60.4933 44.3005 60.44C44.1005 60.3867 43.8805 60.3333 43.6405 60.28C43.4138 60.2133 43.1805 60.1467 42.9405 60.08C42.6071 59.9867 42.2871 59.8667 41.9805 59.72C41.6738 59.5733 41.3938 59.3867 41.1405 59.16C40.8871 58.92 40.6871 58.6333 40.5405 58.3C40.3938 57.9533 40.3205 57.5333 40.3205 57.04C40.3205 56.3867 40.4738 55.84 40.7805 55.4C41.0871 54.96 41.5338 54.6267 42.1205 54.4C42.7071 54.16 43.4205 54.04 44.2605 54.04C44.5005 54.04 44.7405 54.0533 44.9805 54.08C45.2205 54.1067 45.4538 54.1533 45.6805 54.22C45.9205 54.2867 46.1538 54.3667 46.3805 54.46C46.6071 54.5533 46.8338 54.6667 47.0605 54.8C47.4605 54.9867 47.6671 55.24 47.6805 55.56C47.6938 55.88 47.5805 56.2067 47.3405 56.54C47.1938 56.7667 47.0405 56.9333 46.8805 57.04C46.7205 57.1333 46.5538 57.16 46.3805 57.12C46.1671 57.0667 45.9338 56.98 45.6805 56.86C45.4405 56.74 45.1805 56.6267 44.9005 56.52C44.6338 56.4133 44.3671 56.36 44.1005 56.36C43.8738 56.36 43.6805 56.3933 43.5205 56.46C43.3605 56.5133 43.2405 56.5933 43.1605 56.7C43.0805 56.7933 43.0405 56.9067 43.0405 57.04C43.0405 57.2133 43.0871 57.3533 43.1805 57.46C43.2871 57.5533 43.4271 57.6333 43.6005 57.7C43.7738 57.7667 43.9738 57.8267 44.2005 57.88C44.4271 57.9333 44.6738 57.9867 44.9405 58.04C45.3005 58.1067 45.6671 58.2 46.0405 58.32C46.4271 58.4267 46.7738 58.5867 47.0805 58.8C47.4005 59.0133 47.6538 59.3 47.8405 59.66C48.0405 60.02 48.1405 60.4933 48.1405 61.08C48.1405 62.1333 47.7738 62.94 47.0405 63.5C46.3071 64.06 45.2605 64.34 43.9005 64.34ZM54.4206 64.36C53.4873 64.36 52.6806 64.2067 52.0006 63.9C51.334 63.5933 50.7873 63.1933 50.3606 62.7C49.934 62.1933 49.614 61.6333 49.4006 61.02C49.2006 60.4067 49.1006 59.7933 49.1006 59.18C49.1006 58.18 49.3273 57.2933 49.7806 56.52C50.234 55.7467 50.8606 55.14 51.6606 54.7C52.4606 54.2467 53.3806 54.02 54.4206 54.02C55.194 54.02 55.8606 54.1467 56.4206 54.4C56.994 54.64 57.4606 54.96 57.8206 55.36C58.194 55.7467 58.4673 56.1667 58.6406 56.62C58.8273 57.0733 58.9206 57.5067 58.9206 57.92C58.9206 58.6533 58.7406 59.2 58.3806 59.56C58.034 59.9067 57.5873 60.08 57.0406 60.08H52.2806C52.3073 60.4267 52.4273 60.72 52.6406 60.96C52.8673 61.2 53.1473 61.3867 53.4806 61.52C53.814 61.6533 54.1673 61.72 54.5406 61.72C54.8606 61.72 55.1406 61.7067 55.3806 61.68C55.6206 61.64 55.8273 61.5933 56.0006 61.54C56.174 61.4733 56.334 61.4133 56.4806 61.36C56.6273 61.2933 56.754 61.24 56.8606 61.2C56.9806 61.16 57.094 61.1333 57.2006 61.12C57.4006 61.1067 57.5806 61.1667 57.7406 61.3C57.914 61.42 58.0673 61.6067 58.2006 61.86C58.294 62.0067 58.354 62.1467 58.3806 62.28C58.4206 62.4133 58.4406 62.5467 58.4406 62.68C58.4406 63 58.274 63.2867 57.9406 63.54C57.6206 63.7933 57.1606 63.9933 56.5606 64.14C55.974 64.2867 55.2606 64.36 54.4206 64.36ZM52.2806 58.44H55.4406C55.654 58.44 55.8073 58.4067 55.9006 58.34C56.0073 58.26 56.0606 58.1133 56.0606 57.9C56.0606 57.66 55.9873 57.4533 55.8406 57.28C55.694 57.0933 55.494 56.9533 55.2406 56.86C55.0006 56.7533 54.7206 56.7 54.4006 56.7C53.9873 56.7 53.6206 56.78 53.3006 56.94C52.9806 57.1 52.7273 57.3133 52.5406 57.58C52.3673 57.8467 52.2806 58.1333 52.2806 58.44ZM64.5028 64.16C63.8895 64.16 63.3095 64.04 62.7628 63.8C62.2295 63.56 61.7628 63.2267 61.3628 62.8C60.9628 62.36 60.6495 61.8467 60.4228 61.26C60.2095 60.66 60.1028 60.0067 60.1028 59.3V55.68C60.1028 55.4133 60.1295 55.1667 60.1828 54.94C60.2361 54.7133 60.3628 54.5267 60.5628 54.38C60.7761 54.2333 61.1295 54.16 61.6228 54.16C62.1161 54.16 62.4628 54.2333 62.6628 54.38C62.8761 54.5267 63.0028 54.72 63.0428 54.96C63.0961 55.1867 63.1228 55.4333 63.1228 55.7V59.3C63.1228 59.6867 63.1895 60.0267 63.3228 60.32C63.4695 60.6 63.6761 60.8133 63.9428 60.96C64.2228 61.1067 64.5495 61.18 64.9228 61.18C65.3095 61.18 65.6361 61.1067 65.9028 60.96C66.1828 60.8 66.3961 60.58 66.5428 60.3C66.7028 60.02 66.7828 59.6867 66.7828 59.3V55.66C66.7828 55.3933 66.8095 55.1467 66.8628 54.92C66.9161 54.6933 67.0428 54.5133 67.2428 54.38C67.4561 54.2333 67.8095 54.16 68.3028 54.16C68.7961 54.16 69.1428 54.2333 69.3428 54.38C69.5561 54.5267 69.6828 54.72 69.7228 54.96C69.7761 55.1867 69.8028 55.4267 69.8028 55.68V62.72C69.8028 62.9733 69.7761 63.2133 69.7228 63.44C69.6828 63.6533 69.5561 63.8267 69.3428 63.96C69.1295 64.0933 68.7828 64.16 68.3028 64.16C67.9428 64.16 67.6628 64.12 67.4628 64.04C67.2628 63.96 67.1161 63.86 67.0228 63.74C66.9295 63.62 66.8695 63.4933 66.8428 63.36C66.8295 63.2267 66.8228 63.1067 66.8228 63L67.0828 62.78C67.0428 62.8333 66.9561 62.9333 66.8228 63.08C66.6895 63.2267 66.5095 63.3867 66.2828 63.56C66.0695 63.72 65.8161 63.86 65.5228 63.98C65.2295 64.1 64.8895 64.16 64.5028 64.16ZM72.8542 64.18C72.3742 64.18 72.0276 64.1067 71.8142 63.96C71.6009 63.8133 71.4742 63.6267 71.4342 63.4C71.3942 63.1733 71.3742 62.9267 71.3742 62.66V55.66C71.3742 55.3933 71.3942 55.1533 71.4342 54.94C71.4876 54.7133 71.6209 54.5333 71.8342 54.4C72.0476 54.2533 72.4009 54.18 72.8942 54.18C73.3876 54.18 73.7476 54.28 73.9742 54.48C74.2009 54.6667 74.3142 54.98 74.3142 55.42L74.0542 55.64C74.0809 55.5733 74.1609 55.46 74.2942 55.3C74.4276 55.14 74.6009 54.9733 74.8142 54.8C75.0276 54.6267 75.2742 54.48 75.5542 54.36C75.8476 54.2267 76.1609 54.16 76.4942 54.16C76.9342 54.16 77.3276 54.2267 77.6742 54.36C78.0342 54.48 78.3542 54.6667 78.6342 54.92C78.9276 55.16 79.1809 55.4667 79.3942 55.84C79.5809 55.5733 79.8076 55.3133 80.0742 55.06C80.3409 54.8067 80.6542 54.5933 81.0142 54.42C81.3876 54.2467 81.8009 54.16 82.2542 54.16C83.0276 54.16 83.6809 54.36 84.2142 54.76C84.7609 55.1467 85.1742 55.7067 85.4542 56.44C85.7342 57.1733 85.8742 58.06 85.8742 59.1V62.68C85.8742 62.9333 85.8476 63.18 85.7942 63.42C85.7542 63.6467 85.6276 63.8333 85.4142 63.98C85.2009 64.1133 84.8476 64.18 84.3542 64.18C83.8609 64.18 83.5076 64.1067 83.2942 63.96C83.0942 63.8133 82.9676 63.6267 82.9142 63.4C82.8742 63.16 82.8542 62.9133 82.8542 62.66V59.08C82.8542 58.6667 82.8076 58.32 82.7142 58.04C82.6209 57.76 82.4742 57.5467 82.2742 57.4C82.0876 57.24 81.8476 57.16 81.5542 57.16C81.2476 57.16 80.9876 57.2333 80.7742 57.38C80.5609 57.5133 80.4009 57.7267 80.2942 58.02C80.1876 58.3 80.1342 58.66 80.1342 59.1V62.68C80.1342 62.9467 80.1009 63.2 80.0342 63.44C79.9676 63.6667 79.8209 63.8533 79.5942 64C79.3809 64.1333 79.0342 64.1933 78.5542 64.18C78.0742 64.1667 77.7342 64.0867 77.5342 63.94C77.3342 63.7933 77.2142 63.6067 77.1742 63.38C77.1342 63.14 77.1142 62.9 77.1142 62.66V59.08C77.1142 58.6667 77.0676 58.32 76.9742 58.04C76.8809 57.7467 76.7409 57.5267 76.5542 57.38C76.3676 57.2333 76.1209 57.16 75.8142 57.16C75.4809 57.16 75.2076 57.2467 74.9942 57.42C74.7809 57.5933 74.6209 57.8267 74.5142 58.12C74.4209 58.4 74.3742 58.72 74.3742 59.08V62.68C74.3742 62.9467 74.3476 63.1933 74.2942 63.42C74.2542 63.6467 74.1276 63.8333 73.9142 63.98C73.7009 64.1133 73.3476 64.18 72.8542 64.18Z" fill="white"/>
<rect y="54" width="34" height="2" transform="rotate(-90 0 54)" fill="#FF6A48"/>
<rect x="12" width="42" height="2" fill="#6B30D2"/>
</svg>
