<svg width="112" height="70" fill="none" xmlns="http://www.w3.org/2000/svg"><path fill="#026729" d="M13 68h38v2H13z"/><path d="M22.17 11.012a.933.933 0 0 1 .54.738c.06.336-.024.642-.252.918a.825.825 0 0 1-.612.36 1.38 1.38 0 0 1-.738-.144 4.582 4.582 0 0 0-1.908-.414c-.648 0-1.23.102-1.746.306a3.607 3.607 0 0 0-1.296.882 3.79 3.79 0 0 0-.828 1.332 5.163 5.163 0 0 0-.27 1.71c0 .732.102 1.368.306 1.908.216.54.51.99.882 1.35.372.36.81.63 1.314.81a5.15 5.15 0 0 0 1.638.252c.324 0 .648-.03.972-.09.324-.06.636-.168.936-.324.252-.12.498-.162.738-.126a.947.947 0 0 1 .63.378c.24.3.324.612.252.936a.92.92 0 0 1-.54.684 6.873 6.873 0 0 1-.972.396 6.93 6.93 0 0 1-.99.216c-.336.06-.678.09-1.026.09a7.338 7.338 0 0 1-2.466-.414 6.344 6.344 0 0 1-2.07-1.224 5.73 5.73 0 0 1-1.422-2.016c-.348-.816-.522-1.758-.522-2.826 0-.924.156-1.776.468-2.556a6.015 6.015 0 0 1 1.35-2.016 6.138 6.138 0 0 1 2.07-1.332 6.78 6.78 0 0 1 2.592-.486c.528 0 1.044.06 1.548.18s.978.294 1.422.522Zm11.627 7.182c0 .984-.222 1.854-.666 2.61a4.65 4.65 0 0 1-1.764 1.746c-.732.42-1.554.63-2.466.63-.912 0-1.74-.21-2.484-.63a4.825 4.825 0 0 1-1.764-1.746c-.432-.756-.648-1.626-.648-2.61s.216-1.848.648-2.592a4.784 4.784 0 0 1 1.764-1.764c.744-.432 1.572-.648 2.484-.648.912 0 1.734.216 2.466.648a4.613 4.613 0 0 1 1.764 1.764c.444.744.666 1.608.666 2.592Zm-2.16 0c0-.612-.126-1.14-.378-1.584-.24-.456-.57-.81-.99-1.062a2.55 2.55 0 0 0-1.368-.378c-.504 0-.966.126-1.386.378a2.821 2.821 0 0 0-.99 1.062c-.24.444-.36.972-.36 1.584 0 .6.12 1.128.36 1.584.252.444.582.792.99 1.044.42.252.882.378 1.386.378.504 0 .96-.126 1.368-.378.42-.252.75-.6.99-1.044.252-.456.378-.984.378-1.584Zm9.109-5.004c.96 0 1.668.234 2.124.702.456.456.756 1.05.9 1.782l-.306-.162.144-.288c.144-.276.366-.57.666-.882.3-.324.66-.594 1.08-.81a3.037 3.037 0 0 1 1.44-.342c.864 0 1.518.186 1.962.558.456.372.768.87.936 1.494a7.75 7.75 0 0 1 .252 2.052v4.608c0 .312-.102.576-.306.792a1.049 1.049 0 0 1-.774.306c-.312 0-.57-.102-.774-.306a1.11 1.11 0 0 1-.306-.792v-4.608c0-.396-.048-.75-.144-1.062a1.468 1.468 0 0 0-.522-.774c-.252-.192-.612-.288-1.08-.288-.456 0-.846.096-1.17.288-.324.192-.57.45-.738.774a2.343 2.343 0 0 0-.234 1.062v4.608c0 .312-.102.576-.306.792a1.049 1.049 0 0 1-.774.306c-.312 0-.57-.102-.774-.306a1.11 1.11 0 0 1-.306-.792v-4.608c0-.396-.048-.75-.144-1.062a1.468 1.468 0 0 0-.522-.774c-.252-.192-.612-.288-1.08-.288-.456 0-.846.096-1.17.288-.324.192-.57.45-.738.774a2.343 2.343 0 0 0-.234 1.062v4.608c0 .312-.102.576-.306.792a1.049 1.049 0 0 1-.774.306c-.312 0-.57-.102-.774-.306a1.11 1.11 0 0 1-.306-.792v-7.434c0-.312.102-.57.306-.774.204-.216.462-.324.774-.324s.57.108.774.324c.204.204.306.462.306.774v.774l-.27-.054c.108-.204.258-.42.45-.648.192-.24.426-.462.702-.666.276-.204.582-.366.918-.486a2.977 2.977 0 0 1 1.098-.198Zm16.593 0c.96 0 1.668.234 2.124.702.456.456.756 1.05.9 1.782l-.306-.162.144-.288c.144-.276.366-.57.666-.882.3-.324.66-.594 1.08-.81a3.037 3.037 0 0 1 1.44-.342c.864 0 1.518.186 1.962.558.456.372.768.87.936 1.494a7.75 7.75 0 0 1 .252 2.052v4.608c0 .312-.102.576-.306.792a1.049 1.049 0 0 1-.774.306c-.312 0-.57-.102-.774-.306a1.11 1.11 0 0 1-.306-.792v-4.608c0-.396-.048-.75-.144-1.062a1.468 1.468 0 0 0-.522-.774c-.252-.192-.612-.288-1.08-.288-.456 0-.846.096-1.17.288-.324.192-.57.45-.738.774a2.343 2.343 0 0 0-.234 1.062v4.608c0 .312-.102.576-.306.792a1.049 1.049 0 0 1-.774.306c-.312 0-.57-.102-.774-.306a1.11 1.11 0 0 1-.306-.792v-4.608c0-.396-.048-.75-.144-1.062a1.468 1.468 0 0 0-.522-.774c-.252-.192-.612-.288-1.08-.288-.456 0-.846.096-1.17.288-.324.192-.57.45-.738.774a2.343 2.343 0 0 0-.234 1.062v4.608c0 .312-.102.576-.306.792a1.049 1.049 0 0 1-.774.306c-.312 0-.57-.102-.774-.306a1.11 1.11 0 0 1-.306-.792v-7.434c0-.312.102-.57.306-.774.204-.216.462-.324.774-.324s.57.108.774.324c.204.204.306.462.306.774v.774l-.27-.054c.108-.204.258-.42.45-.648.192-.24.426-.462.702-.666.276-.204.582-.366.918-.486a2.977 2.977 0 0 1 1.098-.198Zm18.682.18c.312 0 .57.108.774.324.204.204.306.462.306.774v4.572c0 1.272-.354 2.28-1.062 3.024-.708.744-1.728 1.116-3.06 1.116s-2.352-.372-3.06-1.116c-.696-.744-1.044-1.752-1.044-3.024v-4.572c0-.312.102-.57.306-.774.204-.216.462-.324.774-.324s.57.108.774.324c.204.204.306.462.306.774v4.572c0 .732.162 1.278.486 1.638.324.348.81.522 1.458.522.66 0 1.152-.174 1.476-.522.324-.36.486-.906.486-1.638v-4.572c0-.312.102-.57.306-.774.204-.216.462-.324.774-.324Zm8.567-.18c.888 0 1.56.186 2.016.558.468.372.785.87.954 1.494.18.612.27 1.296.27 2.052v4.608c0 .312-.103.576-.306.792a1.049 1.049 0 0 1-.775.306c-.311 0-.57-.102-.773-.306a1.11 1.11 0 0 1-.306-.792v-4.608c0-.396-.055-.75-.163-1.062a1.432 1.432 0 0 0-.54-.774c-.264-.192-.642-.288-1.133-.288-.48 0-.888.096-1.224.288-.325.192-.577.45-.757.774a2.204 2.204 0 0 0-.251 1.062v4.608c0 .312-.102.576-.306.792a1.049 1.049 0 0 1-.775.306c-.312 0-.57-.102-.773-.306a1.11 1.11 0 0 1-.306-.792v-7.434c0-.312.102-.57.306-.774.204-.216.462-.324.773-.324.313 0 .57.108.774.324.204.204.306.462.306.774v.774l-.27-.054c.109-.204.265-.42.469-.648a4.27 4.27 0 0 1 .72-.666 3.46 3.46 0 0 1 .936-.486 3.172 3.172 0 0 1 1.134-.198Zm7.608 8.712c0 .312-.102.576-.306.792a1.049 1.049 0 0 1-.774.306c-.312 0-.57-.102-.774-.306a1.11 1.11 0 0 1-.306-.792v-7.434c0-.312.102-.57.306-.774.204-.216.462-.324.774-.324s.57.108.774.324c.204.204.306.462.306.774v7.434ZM91.098 12.2c-.408 0-.696-.066-.864-.198-.168-.132-.252-.366-.252-.702v-.342c0-.348.09-.582.27-.702.192-.132.48-.198.864-.198.42 0 .714.066.882.198.168.132.252.366.252.702v.342c0 .348-.09.588-.27.72-.18.12-.474.18-.882.18Zm3.426 1.35h4.266c.288 0 .528.096.72.288a.977.977 0 0 1 .288.72c0 .276-.096.51-.288.702-.192.18-.432.27-.72.27h-4.266a.977.977 0 0 1-.72-.288.977.977 0 0 1-.288-.72c0-.276.096-.504.288-.684a.977.977 0 0 1 .72-.288Zm1.926-2.25c.312 0 .564.108.756.324.204.204.306.462.306.774v8.01c0 .168.03.306.09.414a.63.63 0 0 0 .27.234c.12.048.246.072.378.072.144 0 .276-.024.396-.072.12-.06.258-.09.414-.09.168 0 .318.078.45.234.144.156.216.372.216.648 0 .336-.186.612-.558.828-.36.216-.75.324-1.17.324-.252 0-.534-.018-.846-.054a2.57 2.57 0 0 1-.864-.306c-.264-.168-.486-.42-.666-.756-.18-.336-.27-.798-.27-1.386v-8.1A1.077 1.077 0 0 1 96.45 11.3Zm12.477 2.07c.312 0 .57.108.774.324.204.204.306.462.306.774v7.65c0 1.104-.21 1.98-.63 2.628a3.468 3.468 0 0 1-1.656 1.422c-.696.288-1.476.432-2.34.432-.384 0-.792-.03-1.224-.09-.432-.06-.786-.15-1.062-.27-.36-.156-.612-.354-.756-.594a.88.88 0 0 1-.072-.738c.108-.348.282-.588.522-.72a.92.92 0 0 1 .756-.036c.192.06.444.15.756.27.312.132.672.198 1.08.198.552 0 1.008-.078 1.368-.234.372-.144.648-.396.828-.756.192-.348.288-.828.288-1.44v-1.206l.378.432a3.193 3.193 0 0 1-.774.99c-.3.252-.66.444-1.08.576-.42.132-.9.198-1.44.198-.636 0-1.194-.144-1.674-.432a3.099 3.099 0 0 1-1.098-1.224c-.264-.528-.396-1.128-.396-1.8v-5.256c0-.312.102-.57.306-.774.204-.216.462-.324.774-.324s.57.108.774.324c.204.204.306.462.306.774v4.608c0 .78.168 1.332.504 1.656.348.312.828.468 1.44.468.42 0 .774-.078 1.062-.234.288-.168.51-.408.666-.72.156-.324.234-.714.234-1.17v-4.608c0-.312.102-.57.306-.774.204-.216.462-.324.774-.324ZM17.4 41.18c-.84 0-1.596-.102-2.268-.306-.672-.216-1.314-.588-1.926-1.116a1.42 1.42 0 0 1-.36-.45 1.118 1.118 0 0 1-.126-.504c0-.276.096-.516.288-.72a.998.998 0 0 1 .756-.324c.228 0 .432.072.612.216.456.372.906.654 1.35.846.456.192 1.014.288 1.674.288.444 0 .852-.066 1.224-.198.372-.144.672-.33.9-.558.228-.24.342-.51.342-.81 0-.36-.108-.666-.324-.918-.216-.252-.546-.462-.99-.63-.444-.18-1.008-.318-1.692-.414a7.9 7.9 0 0 1-1.71-.432 4.343 4.343 0 0 1-1.242-.756 3.152 3.152 0 0 1-.738-1.08 3.75 3.75 0 0 1-.252-1.404c0-.78.198-1.446.594-1.998.408-.552.954-.972 1.638-1.26.684-.288 1.44-.432 2.268-.432.78 0 1.5.12 2.16.36.672.228 1.218.522 1.638.882.348.276.522.594.522.954 0 .264-.102.504-.306.72a.96.96 0 0 1-.72.324.79.79 0 0 1-.486-.162 3.065 3.065 0 0 0-.774-.468 5.81 5.81 0 0 0-1.026-.378 3.52 3.52 0 0 0-1.008-.162c-.516 0-.954.066-1.314.198-.348.132-.612.312-.792.54-.18.228-.27.492-.27.792 0 .36.102.66.306.9.216.228.522.414.918.558.396.132.87.252 1.422.36.72.132 1.35.288 1.89.468.552.18 1.008.414 1.368.702.36.276.63.63.81 1.062.18.42.27.936.27 1.548 0 .78-.216 1.452-.648 2.016-.432.564-1.002.996-1.71 1.296-.696.3-1.452.45-2.268.45Zm10.794-9.99c.684 0 1.278.072 1.782.216.516.144.912.348 1.188.612.288.252.432.558.432.918 0 .24-.072.468-.216.684-.144.204-.354.306-.63.306-.192 0-.354-.024-.486-.072a1.525 1.525 0 0 1-.324-.216 1.896 1.896 0 0 0-.342-.234c-.12-.072-.306-.126-.558-.162a3.032 3.032 0 0 0-.54-.072c-.612 0-1.134.132-1.566.396-.42.264-.744.624-.972 1.08-.228.444-.342.96-.342 1.548 0 .576.114 1.092.342 1.548.24.444.564.798.972 1.062.42.264.9.396 1.44.396.3 0 .558-.018.774-.054a1.92 1.92 0 0 0 .54-.162c.168-.096.318-.198.45-.306.132-.108.33-.162.594-.162.312 0 .552.102.72.306.168.192.252.432.252.72 0 .3-.168.576-.504.828-.336.24-.78.438-1.332.594a6.831 6.831 0 0 1-1.764.216c-.948 0-1.77-.216-2.466-.648a4.519 4.519 0 0 1-1.62-1.8c-.372-.756-.558-1.602-.558-2.538 0-.984.198-1.848.594-2.592a4.475 4.475 0 0 1 1.674-1.764c.72-.432 1.542-.648 2.466-.648Zm7.102 8.712c0 .312-.102.576-.306.792a1.049 1.049 0 0 1-.774.306c-.312 0-.57-.102-.774-.306a1.11 1.11 0 0 1-.306-.792v-7.434c0-.312.102-.57.306-.774.204-.216.462-.324.774-.324s.57.108.774.324c.204.204.306.462.306.774v7.434ZM34.198 30.2c-.408 0-.696-.066-.864-.198-.168-.132-.252-.366-.252-.702v-.342c0-.348.09-.582.27-.702.192-.132.48-.198.864-.198.42 0 .714.066.882.198.168.132.252.366.252.702v.342c0 .348-.09.588-.27.72-.18.12-.474.18-.882.18Zm7.854 10.98c-1.02 0-1.908-.21-2.664-.63a4.556 4.556 0 0 1-1.728-1.746c-.396-.732-.594-1.56-.594-2.484 0-1.08.216-1.998.648-2.754.444-.768 1.02-1.356 1.728-1.764a4.437 4.437 0 0 1 2.25-.612c.612 0 1.188.126 1.728.378.552.252 1.038.6 1.458 1.044.42.432.75.936.99 1.512a4.53 4.53 0 0 1 .378 1.836.924.924 0 0 1-.342.702c-.216.18-.468.27-.756.27h-6.876l-.54-1.8h6.606l-.396.36v-.486a1.612 1.612 0 0 0-.378-.936 2.219 2.219 0 0 0-.828-.648 2.235 2.235 0 0 0-1.044-.252c-.36 0-.696.048-1.008.144a1.931 1.931 0 0 0-.81.486c-.228.228-.408.534-.54.918-.132.384-.198.87-.198 1.458 0 .648.132 1.2.396 1.656.276.444.624.786 1.044 1.026a2.89 2.89 0 0 0 1.368.342c.444 0 .798-.036 1.062-.108.264-.072.474-.156.63-.252a7.4 7.4 0 0 1 .45-.27c.216-.108.42-.162.612-.162.264 0 .48.09.648.27.18.18.27.39.27.63 0 .324-.168.618-.504.882-.312.264-.75.498-1.314.702a5.381 5.381 0 0 1-1.746.288Zm11.229-9.99c.888 0 1.56.186 2.016.558.468.372.786.87.954 1.494.18.612.27 1.296.27 2.052v4.608c0 .312-.102.576-.306.792a1.049 1.049 0 0 1-.774.306c-.312 0-.57-.102-.774-.306a1.11 1.11 0 0 1-.306-.792v-4.608c0-.396-.054-.75-.162-1.062a1.432 1.432 0 0 0-.54-.774c-.264-.192-.642-.288-1.134-.288-.48 0-.888.096-1.224.288-.324.192-.576.45-.756.774a2.204 2.204 0 0 0-.252 1.062v4.608c0 .312-.102.576-.306.792a1.049 1.049 0 0 1-.774.306c-.312 0-.57-.102-.774-.306a1.11 1.11 0 0 1-.306-.792v-7.434c0-.312.102-.57.306-.774.204-.216.462-.324.774-.324s.57.108.774.324c.204.204.306.462.306.774v.774l-.27-.054c.108-.204.264-.42.468-.648a4.27 4.27 0 0 1 .72-.666 3.46 3.46 0 0 1 .936-.486 3.172 3.172 0 0 1 1.134-.198Zm9.858 0c.684 0 1.279.072 1.782.216.516.144.912.348 1.188.612.288.252.433.558.433.918 0 .24-.073.468-.216.684-.144.204-.354.306-.63.306-.192 0-.355-.024-.486-.072a1.525 1.525 0 0 1-.325-.216 1.896 1.896 0 0 0-.342-.234c-.12-.072-.306-.126-.558-.162a3.032 3.032 0 0 0-.54-.072c-.611 0-1.133.132-1.566.396-.42.264-.743.624-.971 1.08-.229.444-.343.96-.343 1.548 0 .576.114 1.092.343 1.548.24.444.563.798.971 1.062.42.264.9.396 1.44.396.3 0 .558-.018.775-.054a1.92 1.92 0 0 0 .54-.162c.168-.096.317-.198.45-.306.132-.108.33-.162.593-.162.313 0 .552.102.72.306.168.192.252.432.252.72 0 .3-.168.576-.504.828-.335.24-.78.438-1.331.594a6.831 6.831 0 0 1-1.764.216c-.948 0-1.77-.216-2.466-.648a4.519 4.519 0 0 1-1.62-1.8c-.372-.756-.558-1.602-.558-2.538 0-.984.197-1.848.593-2.592a4.475 4.475 0 0 1 1.674-1.764c.72-.432 1.542-.648 2.466-.648Zm9.604 9.99c-1.02 0-1.908-.21-2.664-.63a4.556 4.556 0 0 1-1.728-1.746c-.396-.732-.594-1.56-.594-2.484 0-1.08.216-1.998.648-2.754.444-.768 1.02-1.356 1.728-1.764a4.437 4.437 0 0 1 2.25-.612c.612 0 1.188.126 1.728.378.552.252 1.038.6 1.458 1.044.42.432.75.936.99 1.512a4.53 4.53 0 0 1 .378 1.836.924.924 0 0 1-.342.702c-.216.18-.468.27-.756.27h-6.876l-.54-1.8h6.606l-.396.36v-.486a1.612 1.612 0 0 0-.378-.936 2.219 2.219 0 0 0-.828-.648 2.235 2.235 0 0 0-1.044-.252c-.36 0-.696.048-1.008.144a1.931 1.931 0 0 0-.81.486c-.228.228-.408.534-.54.918-.132.384-.198.87-.198 1.458 0 .648.132 1.2.396 1.656.276.444.624.786 1.044 1.026a2.89 2.89 0 0 0 1.368.342c.444 0 .798-.036 1.062-.108.264-.072.474-.156.63-.252a7.4 7.4 0 0 1 .45-.27c.216-.108.42-.162.612-.162.264 0 .48.09.648.27.18.18.27.39.27.63 0 .324-.168.618-.504.882-.312.264-.75.498-1.314.702a5.381 5.381 0 0 1-1.746.288Zm-58.259 5.202c.168 0 .342.048.522.144a.967.967 0 0 1 .432.342l4.374 6.732-.9-.036 4.482-6.696c.228-.324.522-.486.882-.486.288 0 .546.102.774.306.228.204.342.468.342.792v10.422c0 .312-.102.576-.306.792-.204.204-.474.306-.81.306-.336 0-.612-.102-.828-.306a1.11 1.11 0 0 1-.306-.792v-8.478l.702.162-3.672 5.598a1.468 1.468 0 0 1-.414.342.801.801 0 0 1-.486.126.844.844 0 0 1-.486-.126 1.567 1.567 0 0 1-.396-.342l-3.438-5.436.468-.954v9.108c0 .312-.096.576-.288.792-.192.204-.444.306-.756.306a.969.969 0 0 1-.738-.306 1.15 1.15 0 0 1-.288-.792V47.48c0-.3.108-.558.324-.774.228-.216.498-.324.81-.324Zm20.58 2.988c.312 0 .57.108.774.324.204.204.306.462.306.774v4.572c0 1.272-.354 2.28-1.062 3.024-.708.744-1.728 1.116-3.06 1.116s-2.352-.372-3.06-1.116c-.696-.744-1.044-1.752-1.044-3.024v-4.572c0-.312.102-.57.306-.774.204-.216.462-.324.774-.324s.57.108.774.324c.204.204.306.462.306.774v4.572c0 .732.162 1.278.486 1.638.324.348.81.522 1.458.522.66 0 1.152-.174 1.476-.522.324-.36.486-.906.486-1.638v-4.572c0-.312.102-.57.306-.774.204-.216.462-.324.774-.324Zm2.86 8.136c-.12-.168-.173-.384-.161-.648.012-.264.168-.492.468-.684a.932.932 0 0 1 .611-.144c.217.012.427.12.63.324.349.348.715.618 1.099.81.384.192.864.288 1.44.288.18-.012.377-.036.593-.072.217-.048.403-.144.559-.288.168-.156.252-.39.252-.702a.791.791 0 0 0-.27-.63 2.26 2.26 0 0 0-.72-.396 10.45 10.45 0 0 0-.972-.306 30.824 30.824 0 0 1-1.153-.36 5.09 5.09 0 0 1-1.061-.504 2.55 2.55 0 0 1-.792-.846c-.205-.348-.306-.786-.306-1.314 0-.6.168-1.11.504-1.53.335-.42.767-.744 1.295-.972a4.307 4.307 0 0 1 1.693-.342c.371 0 .761.048 1.17.144a4.17 4.17 0 0 1 1.17.432c.371.192.684.45.935.774.133.18.21.396.234.648.024.252-.09.48-.342.684a.903.903 0 0 1-.63.198.994.994 0 0 1-.593-.252 2.114 2.114 0 0 0-.828-.63 2.752 2.752 0 0 0-1.17-.234c-.18 0-.379.024-.595.072a1.051 1.051 0 0 0-.54.27c-.156.132-.233.348-.233.648 0 .276.09.498.27.666.18.156.42.288.72.396.312.096.642.192.99.288.36.096.725.21 1.097.342.373.132.715.306 1.027.522.312.216.564.498.756.846.192.336.288.768.288 1.296 0 .612-.18 1.134-.54 1.566-.36.432-.81.762-1.35.99a4.422 4.422 0 0 1-1.657.324 6.58 6.58 0 0 1-2.123-.36 3.734 3.734 0 0 1-1.764-1.314Zm13.778 1.674c-1.02 0-1.908-.21-2.664-.63a4.556 4.556 0 0 1-1.728-1.746c-.396-.732-.594-1.56-.594-2.484 0-1.08.216-1.998.648-2.754.444-.768 1.02-1.356 1.728-1.764a4.437 4.437 0 0 1 2.25-.612c.612 0 1.188.126 1.728.378.552.252 1.038.6 1.458 1.044.42.432.75.936.99 1.512a4.53 4.53 0 0 1 .378 1.836.924.924 0 0 1-.342.702c-.216.18-.468.27-.756.27h-6.876l-.54-1.8h6.606l-.396.36v-.486a1.612 1.612 0 0 0-.378-.936 2.219 2.219 0 0 0-.828-.648 2.235 2.235 0 0 0-1.044-.252c-.36 0-.696.048-1.008.144a1.931 1.931 0 0 0-.81.486c-.228.228-.408.534-.54.918-.132.384-.198.87-.198 1.458 0 .648.132 1.2.396 1.656.276.444.624.786 1.044 1.026a2.89 2.89 0 0 0 1.368.342c.444 0 .798-.036 1.062-.108.264-.072.474-.156.63-.252a7.4 7.4 0 0 1 .45-.27c.216-.108.42-.162.612-.162.264 0 .48.09.648.27.18.18.27.39.27.63 0 .324-.168.618-.504.882-.312.264-.75.498-1.314.702a5.381 5.381 0 0 1-1.746.288Zm13.227-9.81c.312 0 .57.108.774.324.204.204.306.462.306.774v4.572c0 1.272-.354 2.28-1.062 3.024-.708.744-1.728 1.116-3.06 1.116s-2.352-.372-3.06-1.116c-.696-.744-1.044-1.752-1.044-3.024v-4.572c0-.312.102-.57.306-.774.204-.216.462-.324.774-.324s.57.108.774.324c.204.204.306.462.306.774v4.572c0 .732.162 1.278.486 1.638.324.348.81.522 1.458.522.66 0 1.152-.174 1.476-.522.324-.36.486-.906.486-1.638v-4.572c0-.312.102-.57.306-.774.204-.216.462-.324.774-.324Zm8.477-.18c.96 0 1.668.234 2.124.702.456.456.756 1.05.9 1.782l-.306-.162.144-.288c.144-.276.366-.57.666-.882.3-.324.66-.594 1.08-.81a3.037 3.037 0 0 1 1.44-.342c.864 0 1.518.186 1.962.558.456.372.768.87.936 1.494a7.75 7.75 0 0 1 .252 2.052v4.608c0 .312-.102.576-.306.792a1.049 1.049 0 0 1-.774.306c-.312 0-.57-.102-.774-.306a1.11 1.11 0 0 1-.306-.792v-4.608c0-.396-.048-.75-.144-1.062a1.468 1.468 0 0 0-.522-.774c-.252-.192-.612-.288-1.08-.288-.456 0-.846.096-1.17.288-.324.192-.57.45-.738.774a2.343 2.343 0 0 0-.234 1.062v4.608c0 .312-.102.576-.306.792a1.049 1.049 0 0 1-.774.306c-.312 0-.57-.102-.774-.306a1.11 1.11 0 0 1-.306-.792v-4.608c0-.396-.048-.75-.144-1.062a1.468 1.468 0 0 0-.522-.774c-.252-.192-.612-.288-1.08-.288-.456 0-.846.096-1.17.288-.324.192-.57.45-.738.774a2.343 2.343 0 0 0-.234 1.062v4.608c0 .312-.102.576-.306.792a1.049 1.049 0 0 1-.774.306c-.312 0-.57-.102-.774-.306a1.11 1.11 0 0 1-.306-.792v-7.434c0-.312.102-.57.306-.774.204-.216.462-.324.774-.324s.57.108.774.324c.204.204.306.462.306.774v.774l-.27-.054c.108-.204.258-.42.45-.648.192-.24.426-.462.702-.666.276-.204.582-.366.918-.486a2.977 2.977 0 0 1 1.098-.198Z" fill="#000"/><path fill="#AA1252" d="M0 49V18h2v31z"/><path fill="#6B30D2" d="M13 0h38v2H13z"/></svg>