<svg width="123" height="76" viewBox="0 0 123 76" fill="none" xmlns="http://www.w3.org/2000/svg">
<rect x="12" y="74" width="42" height="2" fill="#03D054"/>
<path d="M23.3 11.68C23.6467 11.8533 23.8467 12.1267 23.9 12.5C23.9667 12.8733 23.8733 13.2133 23.62 13.52C23.4467 13.76 23.22 13.8933 22.94 13.92C22.6733 13.9467 22.4 13.8933 22.12 13.76C21.8 13.6133 21.46 13.5 21.1 13.42C20.7533 13.34 20.3867 13.3 20 13.3C19.28 13.3 18.6333 13.4133 18.06 13.64C17.5 13.8667 17.02 14.1933 16.62 14.62C16.22 15.0333 15.9133 15.5267 15.7 16.1C15.5 16.6733 15.4 17.3067 15.4 18C15.4 18.8133 15.5133 19.52 15.74 20.12C15.98 20.72 16.3067 21.22 16.72 21.62C17.1333 22.02 17.62 22.32 18.18 22.52C18.74 22.7067 19.3467 22.8 20 22.8C20.36 22.8 20.72 22.7667 21.08 22.7C21.44 22.6333 21.7867 22.5133 22.12 22.34C22.4 22.2067 22.6733 22.16 22.94 22.2C23.22 22.24 23.4533 22.38 23.64 22.62C23.9067 22.9533 24 23.3 23.92 23.66C23.8533 24.0067 23.6533 24.26 23.32 24.42C22.9733 24.5933 22.6133 24.74 22.24 24.86C21.88 24.9667 21.5133 25.0467 21.14 25.1C20.7667 25.1667 20.3867 25.2 20 25.2C19.04 25.2 18.1267 25.0467 17.26 24.74C16.4067 24.4333 15.64 23.98 14.96 23.38C14.2933 22.78 13.7667 22.0333 13.38 21.14C12.9933 20.2333 12.8 19.1867 12.8 18C12.8 16.9733 12.9733 16.0267 13.32 15.16C13.68 14.2933 14.18 13.5467 14.82 12.92C15.4733 12.28 16.24 11.7867 17.12 11.44C18 11.08 18.96 10.9 20 10.9C20.5867 10.9 21.16 10.9667 21.72 11.1C22.28 11.2333 22.8067 11.4267 23.3 11.68ZM36.2191 19.66C36.2191 20.7533 35.9724 21.72 35.4791 22.56C34.9991 23.3867 34.3457 24.0333 33.5191 24.5C32.7057 24.9667 31.7924 25.2 30.7791 25.2C29.7657 25.2 28.8457 24.9667 28.0191 24.5C27.2057 24.0333 26.5524 23.3867 26.0591 22.56C25.5791 21.72 25.3391 20.7533 25.3391 19.66C25.3391 18.5667 25.5791 17.6067 26.0591 16.78C26.5524 15.94 27.2057 15.2867 28.0191 14.82C28.8457 14.34 29.7657 14.1 30.7791 14.1C31.7924 14.1 32.7057 14.34 33.5191 14.82C34.3457 15.2867 34.9991 15.94 35.4791 16.78C35.9724 17.6067 36.2191 18.5667 36.2191 19.66ZM33.8191 19.66C33.8191 18.98 33.6791 18.3933 33.3991 17.9C33.1324 17.3933 32.7657 17 32.2991 16.72C31.8457 16.44 31.3391 16.3 30.7791 16.3C30.2191 16.3 29.7057 16.44 29.2391 16.72C28.7857 17 28.4191 17.3933 28.1391 17.9C27.8724 18.3933 27.7391 18.98 27.7391 19.66C27.7391 20.3267 27.8724 20.9133 28.1391 21.42C28.4191 21.9133 28.7857 22.3 29.2391 22.58C29.7057 22.86 30.2191 23 30.7791 23C31.3391 23 31.8457 22.86 32.2991 22.58C32.7657 22.3 33.1324 21.9133 33.3991 21.42C33.6791 20.9133 33.8191 20.3267 33.8191 19.66ZM43.9395 14.1C45.0062 14.1 45.7929 14.36 46.2995 14.88C46.8062 15.3867 47.1395 16.0467 47.2995 16.86L46.9595 16.68L47.1195 16.36C47.2795 16.0533 47.5262 15.7267 47.8595 15.38C48.1929 15.02 48.5929 14.72 49.0595 14.48C49.5395 14.2267 50.0729 14.1 50.6595 14.1C51.6195 14.1 52.3462 14.3067 52.8395 14.72C53.3462 15.1333 53.6929 15.6867 53.8795 16.38C54.0662 17.06 54.1595 17.82 54.1595 18.66V23.78C54.1595 24.1267 54.0462 24.42 53.8195 24.66C53.5929 24.8867 53.3062 25 52.9595 25C52.6129 25 52.3262 24.8867 52.0995 24.66C51.8729 24.42 51.7595 24.1267 51.7595 23.78V18.66C51.7595 18.22 51.7062 17.8267 51.5995 17.48C51.4929 17.12 51.2995 16.8333 51.0195 16.62C50.7395 16.4067 50.3395 16.3 49.8195 16.3C49.3129 16.3 48.8795 16.4067 48.5195 16.62C48.1595 16.8333 47.8862 17.12 47.6995 17.48C47.5262 17.8267 47.4395 18.22 47.4395 18.66V23.78C47.4395 24.1267 47.3262 24.42 47.0995 24.66C46.8729 24.8867 46.5862 25 46.2395 25C45.8929 25 45.6062 24.8867 45.3795 24.66C45.1529 24.42 45.0395 24.1267 45.0395 23.78V18.66C45.0395 18.22 44.9862 17.8267 44.8795 17.48C44.7729 17.12 44.5795 16.8333 44.2995 16.62C44.0195 16.4067 43.6195 16.3 43.0995 16.3C42.5929 16.3 42.1595 16.4067 41.7995 16.62C41.4395 16.8333 41.1662 17.12 40.9795 17.48C40.8062 17.8267 40.7195 18.22 40.7195 18.66V23.78C40.7195 24.1267 40.6062 24.42 40.3795 24.66C40.1529 24.8867 39.8662 25 39.5195 25C39.1729 25 38.8862 24.8867 38.6595 24.66C38.4329 24.42 38.3195 24.1267 38.3195 23.78V15.52C38.3195 15.1733 38.4329 14.8867 38.6595 14.66C38.8862 14.42 39.1729 14.3 39.5195 14.3C39.8662 14.3 40.1529 14.42 40.3795 14.66C40.6062 14.8867 40.7195 15.1733 40.7195 15.52V16.38L40.4195 16.32C40.5395 16.0933 40.7062 15.8533 40.9195 15.6C41.1329 15.3333 41.3929 15.0867 41.6995 14.86C42.0062 14.6333 42.3462 14.4533 42.7195 14.32C43.0929 14.1733 43.4995 14.1 43.9395 14.1ZM62.377 14.1C63.4437 14.1 64.2304 14.36 64.737 14.88C65.2437 15.3867 65.577 16.0467 65.737 16.86L65.397 16.68L65.557 16.36C65.717 16.0533 65.9637 15.7267 66.297 15.38C66.6304 15.02 67.0304 14.72 67.497 14.48C67.977 14.2267 68.5104 14.1 69.097 14.1C70.057 14.1 70.7837 14.3067 71.277 14.72C71.7837 15.1333 72.1304 15.6867 72.317 16.38C72.5037 17.06 72.597 17.82 72.597 18.66V23.78C72.597 24.1267 72.4837 24.42 72.257 24.66C72.0304 24.8867 71.7437 25 71.397 25C71.0504 25 70.7637 24.8867 70.537 24.66C70.3104 24.42 70.197 24.1267 70.197 23.78V18.66C70.197 18.22 70.1437 17.8267 70.037 17.48C69.9304 17.12 69.737 16.8333 69.457 16.62C69.177 16.4067 68.777 16.3 68.257 16.3C67.7504 16.3 67.317 16.4067 66.957 16.62C66.597 16.8333 66.3237 17.12 66.137 17.48C65.9637 17.8267 65.877 18.22 65.877 18.66V23.78C65.877 24.1267 65.7637 24.42 65.537 24.66C65.3104 24.8867 65.0237 25 64.677 25C64.3304 25 64.0437 24.8867 63.817 24.66C63.5904 24.42 63.477 24.1267 63.477 23.78V18.66C63.477 18.22 63.4237 17.8267 63.317 17.48C63.2104 17.12 63.017 16.8333 62.737 16.62C62.457 16.4067 62.057 16.3 61.537 16.3C61.0304 16.3 60.597 16.4067 60.237 16.62C59.877 16.8333 59.6037 17.12 59.417 17.48C59.2437 17.8267 59.157 18.22 59.157 18.66V23.78C59.157 24.1267 59.0437 24.42 58.817 24.66C58.5904 24.8867 58.3037 25 57.957 25C57.6104 25 57.3237 24.8867 57.097 24.66C56.8704 24.42 56.757 24.1267 56.757 23.78V15.52C56.757 15.1733 56.8704 14.8867 57.097 14.66C57.3237 14.42 57.6104 14.3 57.957 14.3C58.3037 14.3 58.5904 14.42 58.817 14.66C59.0437 14.8867 59.157 15.1733 59.157 15.52V16.38L58.857 16.32C58.977 16.0933 59.1437 15.8533 59.357 15.6C59.5704 15.3333 59.8304 15.0867 60.137 14.86C60.4437 14.6333 60.7837 14.4533 61.157 14.32C61.5304 14.1733 61.937 14.1 62.377 14.1ZM83.1345 14.3C83.4812 14.3 83.7679 14.42 83.9945 14.66C84.2212 14.8867 84.3345 15.1733 84.3345 15.52V20.6C84.3345 22.0133 83.9412 23.1333 83.1545 23.96C82.3679 24.7867 81.2345 25.2 79.7545 25.2C78.2745 25.2 77.1412 24.7867 76.3545 23.96C75.5812 23.1333 75.1945 22.0133 75.1945 20.6V15.52C75.1945 15.1733 75.3079 14.8867 75.5345 14.66C75.7612 14.42 76.0479 14.3 76.3945 14.3C76.7412 14.3 77.0279 14.42 77.2545 14.66C77.4812 14.8867 77.5945 15.1733 77.5945 15.52V20.6C77.5945 21.4133 77.7745 22.02 78.1345 22.42C78.4945 22.8067 79.0345 23 79.7545 23C80.4879 23 81.0345 22.8067 81.3945 22.42C81.7545 22.02 81.9345 21.4133 81.9345 20.6V15.52C81.9345 15.1733 82.0479 14.8867 82.2745 14.66C82.5012 14.42 82.7879 14.3 83.1345 14.3ZM92.6528 14.1C93.6395 14.1 94.3861 14.3067 94.8928 14.72C95.4128 15.1333 95.7661 15.6867 95.9528 16.38C96.1528 17.06 96.2528 17.82 96.2528 18.66V23.78C96.2528 24.1267 96.1395 24.42 95.9128 24.66C95.6861 24.8867 95.3995 25 95.0528 25C94.7061 25 94.4195 24.8867 94.1928 24.66C93.9661 24.42 93.8528 24.1267 93.8528 23.78V18.66C93.8528 18.22 93.7928 17.8267 93.6728 17.48C93.5661 17.12 93.3661 16.8333 93.0728 16.62C92.7795 16.4067 92.3595 16.3 91.8128 16.3C91.2795 16.3 90.8261 16.4067 90.4528 16.62C90.0928 16.8333 89.8128 17.12 89.6128 17.48C89.4261 17.8267 89.3328 18.22 89.3328 18.66V23.78C89.3328 24.1267 89.2195 24.42 88.9928 24.66C88.7661 24.8867 88.4795 25 88.1328 25C87.7861 25 87.4995 24.8867 87.2728 24.66C87.0461 24.42 86.9328 24.1267 86.9328 23.78V15.52C86.9328 15.1733 87.0461 14.8867 87.2728 14.66C87.4995 14.42 87.7861 14.3 88.1328 14.3C88.4795 14.3 88.7661 14.42 88.9928 14.66C89.2195 14.8867 89.3328 15.1733 89.3328 15.52V16.38L89.0328 16.32C89.1528 16.0933 89.3261 15.8533 89.5528 15.6C89.7795 15.3333 90.0461 15.0867 90.3528 14.86C90.6595 14.6333 91.0061 14.4533 91.3928 14.32C91.7795 14.1733 92.1995 14.1 92.6528 14.1ZM101.107 23.78C101.107 24.1267 100.994 24.42 100.767 24.66C100.54 24.8867 100.254 25 99.9069 25C99.5602 25 99.2735 24.8867 99.0469 24.66C98.8202 24.42 98.7069 24.1267 98.7069 23.78V15.52C98.7069 15.1733 98.8202 14.8867 99.0469 14.66C99.2735 14.42 99.5602 14.3 99.9069 14.3C100.254 14.3 100.54 14.42 100.767 14.66C100.994 14.8867 101.107 15.1733 101.107 15.52V23.78ZM99.8869 13C99.4335 13 99.1135 12.9267 98.9269 12.78C98.7402 12.6333 98.6469 12.3733 98.6469 12V11.62C98.6469 11.2333 98.7469 10.9733 98.9469 10.84C99.1602 10.6933 99.4802 10.62 99.9069 10.62C100.374 10.62 100.7 10.6933 100.887 10.84C101.074 10.9867 101.167 11.2467 101.167 11.62V12C101.167 12.3867 101.067 12.6533 100.867 12.8C100.667 12.9333 100.34 13 99.8869 13ZM103.693 14.5H108.433C108.753 14.5 109.02 14.6067 109.233 14.82C109.447 15.0333 109.553 15.3 109.553 15.62C109.553 15.9267 109.447 16.1867 109.233 16.4C109.02 16.6 108.753 16.7 108.433 16.7H103.693C103.373 16.7 103.107 16.5933 102.893 16.38C102.68 16.1667 102.573 15.9 102.573 15.58C102.573 15.2733 102.68 15.02 102.893 14.82C103.107 14.6067 103.373 14.5 103.693 14.5ZM105.833 12C106.18 12 106.46 12.12 106.673 12.36C106.9 12.5867 107.013 12.8733 107.013 13.22V22.12C107.013 22.3067 107.047 22.46 107.113 22.58C107.193 22.7 107.293 22.7867 107.413 22.84C107.547 22.8933 107.687 22.92 107.833 22.92C107.993 22.92 108.14 22.8933 108.273 22.84C108.407 22.7733 108.56 22.74 108.733 22.74C108.92 22.74 109.087 22.8267 109.233 23C109.393 23.1733 109.473 23.4133 109.473 23.72C109.473 24.0933 109.267 24.4 108.853 24.64C108.453 24.88 108.02 25 107.553 25C107.273 25 106.96 24.98 106.613 24.94C106.28 24.8867 105.96 24.7733 105.653 24.6C105.36 24.4133 105.113 24.1333 104.913 23.76C104.713 23.3867 104.613 22.8733 104.613 22.22V13.22C104.613 12.8733 104.727 12.5867 104.953 12.36C105.193 12.12 105.487 12 105.833 12ZM119.697 14.3C120.044 14.3 120.33 14.42 120.557 14.66C120.784 14.8867 120.897 15.1733 120.897 15.52V24.02C120.897 25.2467 120.664 26.22 120.197 26.94C119.744 27.6733 119.13 28.2 118.357 28.52C117.584 28.84 116.717 29 115.757 29C115.33 29 114.877 28.9667 114.397 28.9C113.917 28.8333 113.524 28.7333 113.217 28.6C112.817 28.4267 112.537 28.2067 112.377 27.94C112.23 27.6867 112.204 27.4133 112.297 27.12C112.417 26.7333 112.61 26.4667 112.877 26.32C113.144 26.1867 113.424 26.1733 113.717 26.28C113.93 26.3467 114.21 26.4467 114.557 26.58C114.904 26.7267 115.304 26.8 115.757 26.8C116.37 26.8 116.877 26.7133 117.277 26.54C117.69 26.38 117.997 26.1 118.197 25.7C118.41 25.3133 118.517 24.78 118.517 24.1V22.76L118.937 23.24C118.71 23.68 118.424 24.0467 118.077 24.34C117.744 24.62 117.344 24.8333 116.877 24.98C116.41 25.1267 115.877 25.2 115.277 25.2C114.57 25.2 113.95 25.04 113.417 24.72C112.897 24.3867 112.49 23.9333 112.197 23.36C111.904 22.7733 111.757 22.1067 111.757 21.36V15.52C111.757 15.1733 111.87 14.8867 112.097 14.66C112.324 14.42 112.61 14.3 112.957 14.3C113.304 14.3 113.59 14.42 113.817 14.66C114.044 14.8867 114.157 15.1733 114.157 15.52V20.64C114.157 21.5067 114.344 22.12 114.717 22.48C115.104 22.8267 115.637 23 116.317 23C116.784 23 117.177 22.9133 117.497 22.74C117.817 22.5533 118.064 22.2867 118.237 21.94C118.41 21.58 118.497 21.1467 118.497 20.64V15.52C118.497 15.1733 118.61 14.8867 118.837 14.66C119.064 14.42 119.35 14.3 119.697 14.3ZM18 45.2C17.0667 45.2 16.2267 45.0867 15.48 44.86C14.7333 44.62 14.02 44.2067 13.34 43.62C13.1667 43.4733 13.0333 43.3067 12.94 43.12C12.8467 42.9333 12.8 42.7467 12.8 42.56C12.8 42.2533 12.9067 41.9867 13.12 41.76C13.3467 41.52 13.6267 41.4 13.96 41.4C14.2133 41.4 14.44 41.48 14.64 41.64C15.1467 42.0533 15.6467 42.3667 16.14 42.58C16.6467 42.7933 17.2667 42.9 18 42.9C18.4933 42.9 18.9467 42.8267 19.36 42.68C19.7733 42.52 20.1067 42.3133 20.36 42.06C20.6133 41.7933 20.74 41.4933 20.74 41.16C20.74 40.76 20.62 40.42 20.38 40.14C20.14 39.86 19.7733 39.6267 19.28 39.44C18.7867 39.24 18.16 39.0867 17.4 38.98C16.68 38.8733 16.0467 38.7133 15.5 38.5C14.9533 38.2733 14.4933 37.9933 14.12 37.66C13.76 37.3133 13.4867 36.9133 13.3 36.46C13.1133 35.9933 13.02 35.4733 13.02 34.9C13.02 34.0333 13.24 33.2933 13.68 32.68C14.1333 32.0667 14.74 31.6 15.5 31.28C16.26 30.96 17.1 30.8 18.02 30.8C18.8867 30.8 19.6867 30.9333 20.42 31.2C21.1667 31.4533 21.7733 31.78 22.24 32.18C22.6267 32.4867 22.82 32.84 22.82 33.24C22.82 33.5333 22.7067 33.8 22.48 34.04C22.2533 34.28 21.9867 34.4 21.68 34.4C21.48 34.4 21.3 34.34 21.14 34.22C20.9267 34.0333 20.64 33.86 20.28 33.7C19.92 33.5267 19.54 33.3867 19.14 33.28C18.74 33.16 18.3667 33.1 18.02 33.1C17.4467 33.1 16.96 33.1733 16.56 33.32C16.1733 33.4667 15.88 33.6667 15.68 33.92C15.48 34.1733 15.38 34.4667 15.38 34.8C15.38 35.2 15.4933 35.5333 15.72 35.8C15.96 36.0533 16.3 36.26 16.74 36.42C17.18 36.5667 17.7067 36.7 18.32 36.82C19.12 36.9667 19.82 37.14 20.42 37.34C21.0333 37.54 21.54 37.8 21.94 38.12C22.34 38.4267 22.64 38.82 22.84 39.3C23.04 39.7667 23.14 40.34 23.14 41.02C23.14 41.8867 22.9 42.6333 22.42 43.26C21.94 43.8867 21.3067 44.3667 20.52 44.7C19.7467 45.0333 18.9067 45.2 18 45.2ZM29.9936 34.1C30.7536 34.1 31.4136 34.18 31.9736 34.34C32.5469 34.5 32.9869 34.7267 33.2936 35.02C33.6136 35.3 33.7736 35.64 33.7736 36.04C33.7736 36.3067 33.6936 36.56 33.5336 36.8C33.3736 37.0267 33.1403 37.14 32.8336 37.14C32.6203 37.14 32.4403 37.1133 32.2936 37.06C32.1603 36.9933 32.0403 36.9133 31.9336 36.82C31.8269 36.7267 31.7003 36.64 31.5536 36.56C31.4203 36.48 31.2136 36.42 30.9336 36.38C30.6669 36.3267 30.4669 36.3 30.3336 36.3C29.6536 36.3 29.0736 36.4467 28.5936 36.74C28.1269 37.0333 27.7669 37.4333 27.5136 37.94C27.2603 38.4333 27.1336 39.0067 27.1336 39.66C27.1336 40.3 27.2603 40.8733 27.5136 41.38C27.7803 41.8733 28.1403 42.2667 28.5936 42.56C29.0603 42.8533 29.5936 43 30.1936 43C30.5269 43 30.8136 42.98 31.0536 42.94C31.2936 42.9 31.4936 42.84 31.6536 42.76C31.8403 42.6533 32.0069 42.54 32.1536 42.42C32.3003 42.3 32.5203 42.24 32.8136 42.24C33.1603 42.24 33.4269 42.3533 33.6136 42.58C33.8003 42.7933 33.8936 43.06 33.8936 43.38C33.8936 43.7133 33.7069 44.02 33.3336 44.3C32.9603 44.5667 32.4669 44.7867 31.8536 44.96C31.2536 45.12 30.6003 45.2 29.8936 45.2C28.8403 45.2 27.9269 44.96 27.1536 44.48C26.3803 43.9867 25.7803 43.32 25.3536 42.48C24.9403 41.64 24.7336 40.7 24.7336 39.66C24.7336 38.5667 24.9536 37.6067 25.3936 36.78C25.8469 35.94 26.4669 35.2867 27.2536 34.82C28.0536 34.34 28.9669 34.1 29.9936 34.1ZM37.8842 43.78C37.8842 44.1267 37.7709 44.42 37.5442 44.66C37.3176 44.8867 37.0309 45 36.6842 45C36.3376 45 36.0509 44.8867 35.8242 44.66C35.5976 44.42 35.4842 44.1267 35.4842 43.78V35.52C35.4842 35.1733 35.5976 34.8867 35.8242 34.66C36.0509 34.42 36.3376 34.3 36.6842 34.3C37.0309 34.3 37.3176 34.42 37.5442 34.66C37.7709 34.8867 37.8842 35.1733 37.8842 35.52V43.78ZM36.6642 33C36.2109 33 35.8909 32.9267 35.7042 32.78C35.5176 32.6333 35.4242 32.3733 35.4242 32V31.62C35.4242 31.2333 35.5242 30.9733 35.7242 30.84C35.9376 30.6933 36.2576 30.62 36.6842 30.62C37.1509 30.62 37.4776 30.6933 37.6642 30.84C37.8509 30.9867 37.9442 31.2467 37.9442 31.62V32C37.9442 32.3867 37.8442 32.6533 37.6442 32.8C37.4442 32.9333 37.1176 33 36.6642 33ZM45.3908 45.2C44.2574 45.2 43.2708 44.9667 42.4308 44.5C41.6041 44.02 40.9641 43.3733 40.5108 42.56C40.0708 41.7467 39.8508 40.8267 39.8508 39.8C39.8508 38.6 40.0908 37.58 40.5708 36.74C41.0641 35.8867 41.7041 35.2333 42.4908 34.78C43.2774 34.3267 44.1108 34.1 44.9908 34.1C45.6708 34.1 46.3108 34.24 46.9108 34.52C47.5241 34.8 48.0641 35.1867 48.5308 35.68C48.9974 36.16 49.3641 36.72 49.6308 37.36C49.9108 38 50.0508 38.68 50.0508 39.4C50.0374 39.72 49.9108 39.98 49.6708 40.18C49.4308 40.38 49.1508 40.48 48.8308 40.48H41.1908L40.5908 38.48H47.9308L47.4908 38.88V38.34C47.4641 37.9533 47.3241 37.6067 47.0708 37.3C46.8308 36.9933 46.5241 36.7533 46.1508 36.58C45.7908 36.3933 45.4041 36.3 44.9908 36.3C44.5908 36.3 44.2174 36.3533 43.8708 36.46C43.5241 36.5667 43.2241 36.7467 42.9708 37C42.7174 37.2533 42.5174 37.5933 42.3708 38.02C42.2241 38.4467 42.1508 38.9867 42.1508 39.64C42.1508 40.36 42.2974 40.9733 42.5908 41.48C42.8974 41.9733 43.2841 42.3533 43.7508 42.62C44.2308 42.8733 44.7374 43 45.2708 43C45.7641 43 46.1574 42.96 46.4508 42.88C46.7441 42.8 46.9774 42.7067 47.1508 42.6C47.3374 42.48 47.5041 42.38 47.6508 42.3C47.8908 42.18 48.1174 42.12 48.3308 42.12C48.6241 42.12 48.8641 42.22 49.0508 42.42C49.2508 42.62 49.3508 42.8533 49.3508 43.12C49.3508 43.48 49.1641 43.8067 48.7908 44.1C48.4441 44.3933 47.9574 44.6533 47.3308 44.88C46.7041 45.0933 46.0574 45.2 45.3908 45.2ZM57.8677 34.1C58.8543 34.1 59.601 34.3067 60.1077 34.72C60.6277 35.1333 60.981 35.6867 61.1677 36.38C61.3677 37.06 61.4677 37.82 61.4677 38.66V43.78C61.4677 44.1267 61.3543 44.42 61.1277 44.66C60.901 44.8867 60.6143 45 60.2677 45C59.921 45 59.6343 44.8867 59.4077 44.66C59.181 44.42 59.0677 44.1267 59.0677 43.78V38.66C59.0677 38.22 59.0077 37.8267 58.8877 37.48C58.781 37.12 58.581 36.8333 58.2877 36.62C57.9943 36.4067 57.5743 36.3 57.0277 36.3C56.4943 36.3 56.041 36.4067 55.6677 36.62C55.3077 36.8333 55.0277 37.12 54.8277 37.48C54.641 37.8267 54.5477 38.22 54.5477 38.66V43.78C54.5477 44.1267 54.4343 44.42 54.2077 44.66C53.981 44.8867 53.6943 45 53.3477 45C53.001 45 52.7143 44.8867 52.4877 44.66C52.261 44.42 52.1477 44.1267 52.1477 43.78V35.52C52.1477 35.1733 52.261 34.8867 52.4877 34.66C52.7143 34.42 53.001 34.3 53.3477 34.3C53.6943 34.3 53.981 34.42 54.2077 34.66C54.4343 34.8867 54.5477 35.1733 54.5477 35.52V36.38L54.2477 36.32C54.3677 36.0933 54.541 35.8533 54.7677 35.6C54.9943 35.3333 55.261 35.0867 55.5677 34.86C55.8743 34.6333 56.221 34.4533 56.6077 34.32C56.9943 34.1733 57.4143 34.1 57.8677 34.1ZM68.8217 34.1C69.5817 34.1 70.2417 34.18 70.8017 34.34C71.3751 34.5 71.8151 34.7267 72.1217 35.02C72.4417 35.3 72.6017 35.64 72.6017 36.04C72.6017 36.3067 72.5217 36.56 72.3617 36.8C72.2017 37.0267 71.9684 37.14 71.6617 37.14C71.4484 37.14 71.2684 37.1133 71.1217 37.06C70.9884 36.9933 70.8684 36.9133 70.7617 36.82C70.6551 36.7267 70.5284 36.64 70.3817 36.56C70.2484 36.48 70.0417 36.42 69.7617 36.38C69.4951 36.3267 69.2951 36.3 69.1617 36.3C68.4817 36.3 67.9017 36.4467 67.4217 36.74C66.9551 37.0333 66.5951 37.4333 66.3417 37.94C66.0884 38.4333 65.9617 39.0067 65.9617 39.66C65.9617 40.3 66.0884 40.8733 66.3417 41.38C66.6084 41.8733 66.9684 42.2667 67.4217 42.56C67.8884 42.8533 68.4217 43 69.0217 43C69.3551 43 69.6417 42.98 69.8817 42.94C70.1217 42.9 70.3217 42.84 70.4817 42.76C70.6684 42.6533 70.8351 42.54 70.9817 42.42C71.1284 42.3 71.3484 42.24 71.6417 42.24C71.9884 42.24 72.2551 42.3533 72.4417 42.58C72.6284 42.7933 72.7217 43.06 72.7217 43.38C72.7217 43.7133 72.5351 44.02 72.1617 44.3C71.7884 44.5667 71.2951 44.7867 70.6817 44.96C70.0817 45.12 69.4284 45.2 68.7217 45.2C67.6684 45.2 66.7551 44.96 65.9817 44.48C65.2084 43.9867 64.6084 43.32 64.1817 42.48C63.7684 41.64 63.5617 40.7 63.5617 39.66C63.5617 38.5667 63.7817 37.6067 64.2217 36.78C64.6751 35.94 65.2951 35.2867 66.0817 34.82C66.8817 34.34 67.7951 34.1 68.8217 34.1ZM79.4923 45.2C78.359 45.2 77.3723 44.9667 76.5323 44.5C75.7057 44.02 75.0657 43.3733 74.6123 42.56C74.1723 41.7467 73.9523 40.8267 73.9523 39.8C73.9523 38.6 74.1923 37.58 74.6723 36.74C75.1657 35.8867 75.8057 35.2333 76.5923 34.78C77.379 34.3267 78.2123 34.1 79.0923 34.1C79.7723 34.1 80.4123 34.24 81.0123 34.52C81.6257 34.8 82.1657 35.1867 82.6323 35.68C83.099 36.16 83.4657 36.72 83.7323 37.36C84.0123 38 84.1523 38.68 84.1523 39.4C84.139 39.72 84.0123 39.98 83.7723 40.18C83.5323 40.38 83.2523 40.48 82.9323 40.48H75.2923L74.6923 38.48H82.0323L81.5923 38.88V38.34C81.5657 37.9533 81.4257 37.6067 81.1723 37.3C80.9323 36.9933 80.6257 36.7533 80.2523 36.58C79.8923 36.3933 79.5057 36.3 79.0923 36.3C78.6923 36.3 78.319 36.3533 77.9723 36.46C77.6257 36.5667 77.3257 36.7467 77.0723 37C76.819 37.2533 76.619 37.5933 76.4723 38.02C76.3257 38.4467 76.2523 38.9867 76.2523 39.64C76.2523 40.36 76.399 40.9733 76.6923 41.48C76.999 41.9733 77.3857 42.3533 77.8523 42.62C78.3323 42.8733 78.839 43 79.3723 43C79.8657 43 80.259 42.96 80.5523 42.88C80.8457 42.8 81.079 42.7067 81.2523 42.6C81.439 42.48 81.6057 42.38 81.7523 42.3C81.9923 42.18 82.219 42.12 82.4323 42.12C82.7257 42.12 82.9657 42.22 83.1523 42.42C83.3523 42.62 83.4523 42.8533 83.4523 43.12C83.4523 43.48 83.2657 43.8067 82.8923 44.1C82.5457 44.3933 82.059 44.6533 81.4323 44.88C80.8057 45.0933 80.159 45.2 79.4923 45.2ZM14.76 50.98C14.9467 50.98 15.14 51.0333 15.34 51.14C15.5533 51.2333 15.7133 51.36 15.82 51.52L20.68 59L19.68 58.96L24.66 51.52C24.9133 51.16 25.24 50.98 25.64 50.98C25.96 50.98 26.2467 51.0933 26.5 51.32C26.7533 51.5467 26.88 51.84 26.88 52.2V63.78C26.88 64.1267 26.7667 64.42 26.54 64.66C26.3133 64.8867 26.0133 65 25.64 65C25.2667 65 24.96 64.8867 24.72 64.66C24.4933 64.42 24.38 64.1267 24.38 63.78V54.36L25.16 54.54L21.08 60.76C20.96 60.9067 20.8067 61.0333 20.62 61.14C20.4467 61.2467 20.2667 61.2933 20.08 61.28C19.9067 61.2933 19.7267 61.2467 19.54 61.14C19.3667 61.0333 19.22 60.9067 19.1 60.76L15.28 54.72L15.8 53.66V63.78C15.8 64.1267 15.6933 64.42 15.48 64.66C15.2667 64.8867 14.9867 65 14.64 65C14.3067 65 14.0333 64.8867 13.82 64.66C13.6067 64.42 13.5 64.1267 13.5 63.78V52.2C13.5 51.8667 13.62 51.58 13.86 51.34C14.1133 51.1 14.4133 50.98 14.76 50.98ZM37.6267 54.3C37.9734 54.3 38.2601 54.42 38.4867 54.66C38.7134 54.8867 38.8267 55.1733 38.8267 55.52V60.6C38.8267 62.0133 38.4334 63.1333 37.6467 63.96C36.8601 64.7867 35.7267 65.2 34.2467 65.2C32.7667 65.2 31.6334 64.7867 30.8467 63.96C30.0734 63.1333 29.6867 62.0133 29.6867 60.6V55.52C29.6867 55.1733 29.8001 54.8867 30.0267 54.66C30.2534 54.42 30.5401 54.3 30.8867 54.3C31.2334 54.3 31.5201 54.42 31.7467 54.66C31.9734 54.8867 32.0867 55.1733 32.0867 55.52V60.6C32.0867 61.4133 32.2667 62.02 32.6267 62.42C32.9867 62.8067 33.5267 63 34.2467 63C34.9801 63 35.5267 62.8067 35.8867 62.42C36.2467 62.02 36.4267 61.4133 36.4267 60.6V55.52C36.4267 55.1733 36.5401 54.8867 36.7667 54.66C36.9934 54.42 37.2801 54.3 37.6267 54.3ZM40.805 63.34C40.6717 63.1533 40.6117 62.9133 40.625 62.62C40.6383 62.3267 40.8117 62.0733 41.145 61.86C41.3583 61.7267 41.585 61.6733 41.825 61.7C42.065 61.7133 42.2983 61.8333 42.525 62.06C42.9117 62.4467 43.3183 62.7467 43.745 62.96C44.1717 63.1733 44.705 63.28 45.345 63.28C45.545 63.2667 45.765 63.24 46.005 63.2C46.245 63.1467 46.4517 63.04 46.625 62.88C46.8117 62.7067 46.905 62.4467 46.905 62.1C46.905 61.8067 46.805 61.5733 46.605 61.4C46.405 61.2267 46.1383 61.08 45.805 60.96C45.485 60.84 45.125 60.7267 44.725 60.62C44.3117 60.5 43.885 60.3667 43.445 60.22C43.0183 60.0733 42.625 59.8867 42.265 59.66C41.905 59.42 41.6117 59.1067 41.385 58.72C41.1583 58.3333 41.045 57.8467 41.045 57.26C41.045 56.5933 41.2317 56.0267 41.605 55.56C41.9783 55.0933 42.4583 54.7333 43.045 54.48C43.645 54.2267 44.2717 54.1 44.925 54.1C45.3383 54.1 45.7717 54.1533 46.225 54.26C46.6783 54.3533 47.1117 54.5133 47.525 54.74C47.9383 54.9533 48.285 55.24 48.565 55.6C48.7117 55.8 48.7983 56.04 48.825 56.32C48.8517 56.6 48.725 56.8533 48.445 57.08C48.245 57.24 48.0117 57.3133 47.745 57.3C47.4783 57.2733 47.2583 57.18 47.085 57.02C46.8583 56.7267 46.5517 56.4933 46.165 56.32C45.7917 56.1467 45.3583 56.06 44.865 56.06C44.665 56.06 44.445 56.0867 44.205 56.14C43.9783 56.18 43.7783 56.28 43.605 56.44C43.4317 56.5867 43.345 56.8267 43.345 57.16C43.345 57.4667 43.445 57.7133 43.645 57.9C43.845 58.0733 44.1117 58.22 44.445 58.34C44.7917 58.4467 45.1583 58.5533 45.545 58.66C45.945 58.7667 46.3517 58.8933 46.765 59.04C47.1783 59.1867 47.5583 59.38 47.905 59.62C48.2517 59.86 48.5317 60.1733 48.745 60.56C48.9583 60.9333 49.065 61.4133 49.065 62C49.065 62.68 48.865 63.26 48.465 63.74C48.065 64.22 47.565 64.5867 46.965 64.84C46.365 65.08 45.7517 65.2 45.125 65.2C44.3383 65.2 43.5517 65.0667 42.765 64.8C41.9783 64.52 41.325 64.0333 40.805 63.34ZM56.1134 65.2C54.9801 65.2 53.9934 64.9667 53.1534 64.5C52.3268 64.02 51.6868 63.3733 51.2334 62.56C50.7934 61.7467 50.5734 60.8267 50.5734 59.8C50.5734 58.6 50.8134 57.58 51.2934 56.74C51.7868 55.8867 52.4268 55.2333 53.2134 54.78C54.0001 54.3267 54.8334 54.1 55.7134 54.1C56.3934 54.1 57.0334 54.24 57.6334 54.52C58.2468 54.8 58.7868 55.1867 59.2534 55.68C59.7201 56.16 60.0868 56.72 60.3534 57.36C60.6334 58 60.7734 58.68 60.7734 59.4C60.7601 59.72 60.6334 59.98 60.3934 60.18C60.1534 60.38 59.8734 60.48 59.5534 60.48H51.9134L51.3134 58.48H58.6534L58.2134 58.88V58.34C58.1868 57.9533 58.0468 57.6067 57.7934 57.3C57.5534 56.9933 57.2468 56.7533 56.8734 56.58C56.5134 56.3933 56.1268 56.3 55.7134 56.3C55.3134 56.3 54.9401 56.3533 54.5934 56.46C54.2468 56.5667 53.9468 56.7467 53.6934 57C53.4401 57.2533 53.2401 57.5933 53.0934 58.02C52.9468 58.4467 52.8734 58.9867 52.8734 59.64C52.8734 60.36 53.0201 60.9733 53.3134 61.48C53.6201 61.9733 54.0068 62.3533 54.4734 62.62C54.9534 62.8733 55.4601 63 55.9934 63C56.4868 63 56.8801 62.96 57.1734 62.88C57.4668 62.8 57.7001 62.7067 57.8734 62.6C58.0601 62.48 58.2268 62.38 58.3734 62.3C58.6134 62.18 58.8401 62.12 59.0534 62.12C59.3468 62.12 59.5868 62.22 59.7734 62.42C59.9734 62.62 60.0734 62.8533 60.0734 63.12C60.0734 63.48 59.8868 63.8067 59.5134 64.1C59.1668 64.3933 58.6801 64.6533 58.0534 64.88C57.4268 65.0933 56.7801 65.2 56.1134 65.2ZM70.8103 54.3C71.157 54.3 71.4436 54.42 71.6703 54.66C71.897 54.8867 72.0103 55.1733 72.0103 55.52V60.6C72.0103 62.0133 71.617 63.1333 70.8303 63.96C70.0436 64.7867 68.9103 65.2 67.4303 65.2C65.9503 65.2 64.817 64.7867 64.0303 63.96C63.257 63.1333 62.8703 62.0133 62.8703 60.6V55.52C62.8703 55.1733 62.9836 54.8867 63.2103 54.66C63.437 54.42 63.7236 54.3 64.0703 54.3C64.417 54.3 64.7036 54.42 64.9303 54.66C65.157 54.8867 65.2703 55.1733 65.2703 55.52V60.6C65.2703 61.4133 65.4503 62.02 65.8103 62.42C66.1703 62.8067 66.7103 63 67.4303 63C68.1636 63 68.7103 62.8067 69.0703 62.42C69.4303 62.02 69.6103 61.4133 69.6103 60.6V55.52C69.6103 55.1733 69.7236 54.8867 69.9503 54.66C70.177 54.42 70.4636 54.3 70.8103 54.3ZM80.2286 54.1C81.2953 54.1 82.0819 54.36 82.5886 54.88C83.0953 55.3867 83.4286 56.0467 83.5886 56.86L83.2486 56.68L83.4086 56.36C83.5686 56.0533 83.8153 55.7267 84.1486 55.38C84.4819 55.02 84.8819 54.72 85.3486 54.48C85.8286 54.2267 86.3619 54.1 86.9486 54.1C87.9086 54.1 88.6353 54.3067 89.1286 54.72C89.6353 55.1333 89.9819 55.6867 90.1686 56.38C90.3553 57.06 90.4486 57.82 90.4486 58.66V63.78C90.4486 64.1267 90.3353 64.42 90.1086 64.66C89.8819 64.8867 89.5953 65 89.2486 65C88.9019 65 88.6153 64.8867 88.3886 64.66C88.1619 64.42 88.0486 64.1267 88.0486 63.78V58.66C88.0486 58.22 87.9953 57.8267 87.8886 57.48C87.7819 57.12 87.5886 56.8333 87.3086 56.62C87.0286 56.4067 86.6286 56.3 86.1086 56.3C85.6019 56.3 85.1686 56.4067 84.8086 56.62C84.4486 56.8333 84.1753 57.12 83.9886 57.48C83.8153 57.8267 83.7286 58.22 83.7286 58.66V63.78C83.7286 64.1267 83.6153 64.42 83.3886 64.66C83.1619 64.8867 82.8753 65 82.5286 65C82.1819 65 81.8953 64.8867 81.6686 64.66C81.4419 64.42 81.3286 64.1267 81.3286 63.78V58.66C81.3286 58.22 81.2753 57.8267 81.1686 57.48C81.0619 57.12 80.8686 56.8333 80.5886 56.62C80.3086 56.4067 79.9086 56.3 79.3886 56.3C78.8819 56.3 78.4486 56.4067 78.0886 56.62C77.7286 56.8333 77.4553 57.12 77.2686 57.48C77.0953 57.8267 77.0086 58.22 77.0086 58.66V63.78C77.0086 64.1267 76.8953 64.42 76.6686 64.66C76.4419 64.8867 76.1553 65 75.8086 65C75.4619 65 75.1753 64.8867 74.9486 64.66C74.7219 64.42 74.6086 64.1267 74.6086 63.78V55.52C74.6086 55.1733 74.7219 54.8867 74.9486 54.66C75.1753 54.42 75.4619 54.3 75.8086 54.3C76.1553 54.3 76.4419 54.42 76.6686 54.66C76.8953 54.8867 77.0086 55.1733 77.0086 55.52V56.38L76.7086 56.32C76.8286 56.0933 76.9953 55.8533 77.2086 55.6C77.4219 55.3333 77.6819 55.0867 77.9886 54.86C78.2953 54.6333 78.6353 54.4533 79.0086 54.32C79.3819 54.1733 79.7886 54.1 80.2286 54.1Z" fill="white"/>
<rect y="54" width="34" height="2" transform="rotate(-90 0 54)" fill="#FF6A48"/>
<rect x="12" width="42" height="2" fill="#6B30D2"/>
</svg>
